<svg width="100pt" height="100pt" version="1.1" xmlns="http://www.w3.org/2000/svg">
 <path d="m100 68.727c0 17.262-13.988 31.273-31.25 31.273h-62.5c-3.4492 0-6.2383-2.8125-6.2383-6.25s2.7891-6.25 6.2383-6.25c3.4375 0 6.25-2.8125 6.25-6.2734v-62.477c0-3.4609-2.8125-6.25-6.25-6.25-3.4492 0-6.2383-2.8008-6.2383-6.25s2.7891-6.25 6.2383-6.25h56.25c13.801 0 25 11.199 25 25 0 5.8984-2.1367 11.25-5.5391 15.523 10.625 5.0156 18.039 15.715 18.039 28.203zm-50-56.227h-9.375c-1.7383 0-3.125 1.3867-3.125 3.125v18.75c0 1.7109 1.3867 3.125 3.125 3.125h9.375c6.9141 0 12.5-5.5859 12.5-12.5s-5.5859-12.5-12.5-12.5zm6.25 37.5h-15.625c-1.7383 0-3.125 1.3867-3.125 3.125v31.25c0 1.7109 1.3867 3.125 3.125 3.125h15.625c10.352 0 18.75-8.3984 18.75-18.773 0-10.34-8.3984-18.727-18.75-18.727z" fill-rule="evenodd"/>
</svg>
