<svg xmlns="http://www.w3.org/2000/svg" xmlns:xlink="http://www.w3.org/1999/xlink" xmlns:lucid="lucid" width="134.44" height="382"><g transform="translate(-336.4515114875497 -79)" lucid:page-tab-id="0_0"><path d="M0 0h500v500H0z" fill="#fff"/><path d="M389.7 398.6l-3.7-4.75-3.38-4.76-2.9-4.45-2.45-4.17-2.1-3.93-1.82-3.74-1.54-3.56-1.3-3.44-1.13-3.32-.94-3.23-.77-3.15-.63-3.1-.48-3.04-.35-3.03-.22-3-.1-3.02.04-3.03.16-3.07.3-3.13.44-3.2.6-3.32.77-3.44.95-3.6 1.2-3.82 1.48-4.1 1.83-4.48 2.3-5 2.94-5.76 4-7.1 6.42-10.3 24.5-37.22 3.6-6.4 2.6-5.1 2-4.3 1.55-3.8 1.24-3.46 1-3.16.8-2.95.62-2.78.47-2.65.34-2.53.23-2.47.13-2.38.03-2.34-.08-2.3-.16-2.27-.27-2.26-.36-2.27-.46-2.27-.56-2.3-.67-2.33-.8-2.38-.94-2.44-1.1-2.52-1.25-2.6-1.45-2.72-1.68-2.84-1.95-3-2.26-3.17-2.63-3.4-1.8-2.14" stroke="#3a414a" stroke-linejoin="round" fill="none"/><path d="M390.64 399.05l-.62-.05-.6.02-.1-.14.74-.58z" stroke="#3a414a" stroke-width=".05" fill="#3a414a"/><path d="M399.76 142.17l13.23 7.05-6.68 6.43z" stroke="#3a414a" fill="#3a414a"/><path d="M389.7 398.6l-1.63-2.08-1.68-2.38-1.5-2.28-1.3-2.2-1.15-2.14-1-2.08-.88-2.04-.77-2-.66-1.97-.57-1.94-.47-1.95-.4-1.93-.3-1.92-.22-1.94-.14-1.95-.06-1.97.02-2 .1-2.05.2-2.1.3-2.15.4-2.22.52-2.3.65-2.42.8-2.52.95-2.67 1.16-2.84 1.38-3.03 1.67-3.26 2-3.54 2.42-3.9 2.95-4.34 3.67-4.94 4.66-5.75 6.2-7 9.02-9.37 41.45-39.97 2.5-2.8 1.6-2 1.53-2.2 1.45-2.48 1.36-2.77 1.24-3.1 1.1-3.45.93-3.85.7-4.26.4-4.63.1-4.94-.3-5.14-.7-5.17-1.04-5-1.34-4.7-1.56-4.23-1.7-3.73-1.74-3.23-1.77-2.75-.25-.35-1.9-2.43-2.16-2.37-2.63-2.43-3.44-2.7-5.52-3.6-28.8-17.16-4.9-3.85" stroke="#3a414a" stroke-linejoin="round" fill="none"/><path d="M390.64 399.05l-.62-.05-.6.02-.1-.14.74-.58z" stroke="#3a414a" stroke-width=".05" fill="#3a414a"/><path d="M399.82 142.1l13.6 6.3-6.3 6.8z" stroke="#3a414a" fill="#3a414a"/><path d="M389.6 398.68l-8.9-7.43-7.47-6.78-6.1-6.02-5.02-5.4-4.18-4.88-3.5-4.47-2.98-4.12-2.52-3.83-2.14-3.58-1.84-3.36-1.56-3.18-1.34-3.03-1.13-2.92-.95-2.8-.8-2.7-.67-2.62-.53-2.56-.4-2.5-.3-2.48-.2-2.44-.1-2.43v-2.43l.13-2.43.2-2.46.34-2.48.44-2.52.56-2.58.7-2.66.83-2.75 1.02-2.86 1.2-3 1.44-3.2 1.72-3.4 2.05-3.7 2.5-4.07 3.08-4.6 3.95-5.37 5.4-6.74 9.03-10.3L399.4 221l4.62-5.75 3.25-4.42 2.46-3.66 1.94-3.18 1.56-2.8 1.28-2.55 1.06-2.33.87-2.16.7-2.03.6-1.92.48-1.83.4-1.76.3-1.7.2-1.64.15-1.6.07-1.58v-1.55l-.05-1.54-.12-1.53-.2-1.53-.24-1.53-.3-1.55-.4-1.58-.48-1.6-.56-1.63-.66-1.68-.76-1.73-.88-1.8-1.02-1.87-1.17-1.96-1.36-2.06-1.4-1.95" stroke="#3a414a" stroke-linejoin="round" fill="none"/><path d="M390.82 399.06l-.8-.06-.72.02.6-.72z" stroke="#3a414a" stroke-width=".05" fill="#3a414a"/><path d="M399.73 142.2l13.06 7.36-6.84 6.27z" stroke="#3a414a" fill="#3a414a"/><path d="M420 430c0 16.57-13.43 30-30 30s-30-13.43-30-30 13.43-30 30-30 30 13.43 30 30z" stroke="#000" stroke-width="2" fill="#fff"/><use xlink:href="#a" transform="matrix(1,0,0,1,365,405) translate(-0.04882812499999645 33.083767361111114)"/><path d="M428.63 110c0 16.57-13.43 30-30 30s-30-13.43-30-30 13.43-30 30-30 30 13.43 30 30z" stroke="#000" stroke-width="2" fill="#fff"/><use xlink:href="#b" transform="matrix(1,0,0,1,373.6329062797635,85) translate(4.953342013888893 34.02777777777778)"/><defs><path d="M657 26c-323 0-524-166-541-416h195c15 169 171 246 346 246 202 0 356-106 356-265 5-203-294-238-475-293-239-73-380-191-380-389 0-252 224-419 512-419 294 0 499 171 508 396H992c-17-145-151-228-328-228-193 0-321 102-321 242 0 156 175 211 284 241l149 41c160 44 422 134 422 412 0 244-197 432-541 432" id="c"/><path d="M598-1118v154H368v674c0 100 37 144 132 144 23 0 62-6 92-12L629-6c-37 13-88 20-134 20-193 0-307-107-307-290v-688H20v-154h168v-266h180v266h230" id="d"/><path d="M471 26C259 26 90-98 90-318c0-256 228-303 435-329 202-27 287-16 287-108 0-139-79-219-234-219-161 0-248 86-283 164l-173-57c86-203 278-265 451-265 150 0 419 46 419 395V0H815v-152h-12C765-73 660 26 471 26zm31-159c199 0 310-134 310-271v-155c-30 35-226 55-295 64-131 17-246 59-246 186 0 116 97 176 231 176" id="e"/><path d="M158 0v-1118h174v172h12c41-113 157-188 290-188 26 0 70 2 91 3v181c-11-2-60-10-108-10-161 0-279 109-279 260V0H158" id="f"/><g id="a"><use transform="matrix(0.010850694444444444,0,0,0.010850694444444444,0,0)" xlink:href="#c"/><use transform="matrix(0.010850694444444444,0,0,0.010850694444444444,14.2578125,0)" xlink:href="#d"/><use transform="matrix(0.010850694444444444,0,0,0.010850694444444444,21.63628472222222,0)" xlink:href="#e"/><use transform="matrix(0.010850694444444444,0,0,0.010850694444444444,34.11458333333333,0)" xlink:href="#f"/><use transform="matrix(0.010850694444444444,0,0,0.010850694444444444,42.827690972222214,0)" xlink:href="#d"/></g><path d="M180 0v-1490h908v168H370v486h669v168H370v500h727V0H180" id="g"/><path d="M338-670V0H158v-1118h173l1 207c72-158 192-221 342-221 226 0 378 139 378 422V0H872v-695c0-172-96-275-252-275-161 0-282 109-282 300" id="h"/><path d="M577 24c-279 0-473-224-473-580 0-354 195-576 474-576 218 0 287 134 324 193h14v-551h180V0H922v-173h-20C865-111 790 24 577 24zm27-161c203 0 314-172 314-421 0-247-108-413-314-413-212 0-317 181-317 413 0 235 108 421 317 421" id="i"/><g id="b"><use transform="matrix(0.010850694444444444,0,0,0.010850694444444444,0,0)" xlink:href="#g"/><use transform="matrix(0.010850694444444444,0,0,0.010850694444444444,13.35720486111111,0)" xlink:href="#h"/><use transform="matrix(0.010850694444444444,0,0,0.010850694444444444,26.48654513888889,0)" xlink:href="#i"/></g></defs></g></svg>