<svg xmlns="http://www.w3.org/2000/svg" xmlns:xlink="http://www.w3.org/1999/xlink" xmlns:lucid="lucid" width="250.22" height="382"><g transform="translate(-351 -25.666666666666657)" lucid:page-tab-id="0_0"><path d="M0 0h1000v500H0z" fill="#fff"/><path d="M520.02 345.27l-3.7-4.75-3.37-4.77-2.9-4.43-2.45-4.17-2.1-3.93-1.82-3.74-1.54-3.58-1.32-3.43-1.12-3.32-.94-3.23-.77-3.15-.63-3.1-.5-3.05-.34-3.02-.22-3-.08-3.03.03-3.03.16-3.08.3-3.13.45-3.2.6-3.3.77-3.45.96-3.6 1.2-3.83 1.48-4.1 1.83-4.48 2.28-5 2.95-5.77 4-7.1 6.42-10.28 24.5-37.23 3.6-6.4 2.6-5.1 2-4.32 1.55-3.8 1.24-3.45 1-3.16.78-2.95.63-2.78.47-2.65.35-2.55.24-2.45.13-2.4.03-2.32-.08-2.3-.16-2.28-.26-2.26-.36-2.27-.46-2.28-.57-2.3-.67-2.34-.8-2.38-.94-2.44-1.1-2.5-1.25-2.62-1.44-2.7-1.68-2.85-1.95-3-2.26-3.18-2.63-3.4-1.8-2.14" stroke="#3a414a" stroke-linejoin="round" fill="none"/><path d="M520.97 345.72l-.62-.06-.6.03-.1-.15.74-.58z" stroke="#3a414a" stroke-width=".05" fill="#3a414a"/><path d="M530.1 88.83l13.22 7.06-6.67 6.42z" stroke="#3a414a" fill="#3a414a"/><path d="M520.02 345.27l-1.62-2.1-1.68-2.36-1.5-2.27-1.3-2.2-1.13-2.14-1.02-2.1-.88-2.03-.77-2-.66-1.97-.57-1.95-.47-1.93-.4-1.93-.3-1.94-.22-1.93-.13-1.95-.06-1.98.03-2 .1-2.05.2-2.1.3-2.15.4-2.23.52-2.3.65-2.42.8-2.53.95-2.66 1.16-2.83 1.4-3.03 1.66-3.26 2-3.55 2.42-3.9 2.95-4.35 3.67-4.93 4.66-5.74 6.2-7 9.02-9.38 41.45-39.97 2.5-2.8 1.6-2 1.53-2.2 1.45-2.48 1.37-2.77 1.24-3.1 1.12-3.46.92-3.86.7-4.25.4-4.63.08-4.94-.3-5.15-.7-5.17-1.03-5-1.35-4.68-1.56-4.24-1.7-3.73-1.75-3.22-1.77-2.74-.25-.37-1.9-2.42-2.16-2.36-2.63-2.43-3.45-2.68-5.53-3.62-28.8-17.15-4.9-3.86" stroke="#3a414a" stroke-linejoin="round" fill="none"/><path d="M520.97 345.72l-.62-.06-.6.03-.1-.15.74-.58z" stroke="#3a414a" stroke-width=".05" fill="#3a414a"/><path d="M530.15 88.77l13.62 6.3-6.3 6.8z" stroke="#3a414a" fill="#3a414a"/><path d="M519.94 345.34l-8.9-7.42-7.48-6.78-6.1-6.02-5.02-5.4-4.2-4.88-3.5-4.47-2.97-4.13-2.52-3.82-2.14-3.58-1.83-3.37-1.56-3.18-1.33-3.05-1.13-2.9-.96-2.8-.8-2.7-.67-2.62-.52-2.56-.4-2.5-.3-2.48-.2-2.46-.1-2.43v-2.4l.13-2.44.22-2.45.33-2.48.44-2.52.55-2.58.7-2.65.84-2.75 1-2.86 1.2-3 1.44-3.2 1.7-3.4 2.06-3.7 2.5-4.06 3.08-4.6 3.95-5.37 5.4-6.75 9.03-10.3 27.88-30.6 4.6-5.74 3.26-4.42 2.46-3.66 1.94-3.17 1.56-2.82 1.28-2.54 1.05-2.33.86-2.16.72-2.03.6-1.9.46-1.84.4-1.75.28-1.7.22-1.63.14-1.6.07-1.58v-1.56l-.05-1.54-.12-1.53-.2-1.53-.24-1.53-.32-1.54-.4-1.57-.47-1.6-.56-1.64-.67-1.67-.76-1.74-.88-1.8-1.02-1.86-1.18-1.96-1.36-2.07-1.4-1.95" stroke="#3a414a" stroke-linejoin="round" fill="none"/><path d="M521.15 345.73l-.8-.06-.72.02.6-.73z" stroke="#3a414a" stroke-width=".05" fill="#3a414a"/><path d="M530.06 88.86l13.06 7.37-6.83 6.27z" stroke="#3a414a" fill="#3a414a"/><path d="M550.33 376.67c0 16.56-13.43 30-30 30s-30-13.44-30-30c0-16.57 13.43-30 30-30s30 13.43 30 30z" stroke="#000" stroke-width="2" fill="#fff"/><use xlink:href="#a" transform="matrix(1,0,0,1,495.33046317217827,351.66666666666663) translate(-0.04882812499999645 33.083767361111114)"/><path d="M558.96 56.67c0 16.56-13.43 30-30 30s-30-13.44-30-30c0-16.57 13.44-30 30-30 16.57 0 30 13.43 30 30z" stroke="#000" stroke-width="2" fill="#fff"/><use xlink:href="#b" transform="matrix(1,0,0,1,503.9633694519418,31.666666666666657) translate(4.953342013888893 34.02777777777778)"/><path d="M519.56 345.02l-.64-.54-1.47-1.33-1.53-1.5-1.6-1.72-1.66-1.96-1.77-2.25-1.88-2.6-2-3.04-2.14-3.57-2.3-4.25-2.52-5.13-2.76-6.28-3.06-7.83L490.8 293l-3.92-13.28-4.68-18.68-6.24-30.37-15.17-85.36-1.13-4.64-4.55-13.97-2.76-5.42-1.9-2.62-1.42-1.43-1.15-.85-1-.5-.88-.3-.84-.16-.84-.02-.86.12-.94.28-1.06.5-1.28.87-1.62 1.52-2.2 2.78-3.07 5.5-3.97 10.6-2.33 9.75-.7 6.66.33 5.24.9 4 1.24 3 1.37 2.25 1.46 1.68 1.5 1.25 1.6.93 1.67.64 1.8.37 2.04.08 2.34-.3 2.8-.83 3.5-1.7 4.53-3.22 4.3-4.07 58.6-62.2" stroke="#9391ff" stroke-width="2" stroke-linejoin="round" fill="none"/><path d="M522.02 345.8l-1.67-.13-1.4.04 1.22-1.44z" stroke="#9391ff" stroke-width=".05" fill="#9391ff"/><path d="M526.74 90.02l-6.4 13.56-6.75-6.35z" stroke="#9391ff" stroke-width="2" fill="#9391ff"/><path d="M351 75a6 6 0 0 1 6-6h88a6 6 0 0 1 6 6v48a6 6 0 0 1-6 6h-88a6 6 0 0 1-6-6z" fill="none"/><use xlink:href="#c" transform="matrix(1,0,0,1,351,69) translate(37.867838541666664 15.490885416666664)"/><use xlink:href="#d" transform="matrix(1,0,0,1,351,69) translate(12.513020833333336 34.850260416666664)"/><use xlink:href="#e" transform="matrix(1,0,0,1,351,69) translate(35.875651041666664 54.20963541666667)"/><defs><path d="M657 26c-323 0-524-166-541-416h195c15 169 171 246 346 246 202 0 356-106 356-265 5-203-294-238-475-293-239-73-380-191-380-389 0-252 224-419 512-419 294 0 499 171 508 396H992c-17-145-151-228-328-228-193 0-321 102-321 242 0 156 175 211 284 241l149 41c160 44 422 134 422 412 0 244-197 432-541 432" id="f"/><path d="M598-1118v154H368v674c0 100 37 144 132 144 23 0 62-6 92-12L629-6c-37 13-88 20-134 20-193 0-307-107-307-290v-688H20v-154h168v-266h180v266h230" id="g"/><path d="M471 26C259 26 90-98 90-318c0-256 228-303 435-329 202-27 287-16 287-108 0-139-79-219-234-219-161 0-248 86-283 164l-173-57c86-203 278-265 451-265 150 0 419 46 419 395V0H815v-152h-12C765-73 660 26 471 26zm31-159c199 0 310-134 310-271v-155c-30 35-226 55-295 64-131 17-246 59-246 186 0 116 97 176 231 176" id="h"/><path d="M158 0v-1118h174v172h12c41-113 157-188 290-188 26 0 70 2 91 3v181c-11-2-60-10-108-10-161 0-279 109-279 260V0H158" id="i"/><g id="a"><use transform="matrix(0.010850694444444444,0,0,0.010850694444444444,0,0)" xlink:href="#f"/><use transform="matrix(0.010850694444444444,0,0,0.010850694444444444,14.2578125,0)" xlink:href="#g"/><use transform="matrix(0.010850694444444444,0,0,0.010850694444444444,21.63628472222222,0)" xlink:href="#h"/><use transform="matrix(0.010850694444444444,0,0,0.010850694444444444,34.11458333333333,0)" xlink:href="#i"/><use transform="matrix(0.010850694444444444,0,0,0.010850694444444444,42.827690972222214,0)" xlink:href="#g"/></g><path d="M180 0v-1490h908v168H370v486h669v168H370v500h727V0H180" id="j"/><path d="M338-670V0H158v-1118h173l1 207c72-158 192-221 342-221 226 0 378 139 378 422V0H872v-695c0-172-96-275-252-275-161 0-282 109-282 300" id="k"/><path d="M577 24c-279 0-473-224-473-580 0-354 195-576 474-576 218 0 287 134 324 193h14v-551h180V0H922v-173h-20C865-111 790 24 577 24zm27-161c203 0 314-172 314-421 0-247-108-413-314-413-212 0-317 181-317 413 0 235 108 421 317 421" id="l"/><g id="b"><use transform="matrix(0.010850694444444444,0,0,0.010850694444444444,0,0)" xlink:href="#j"/><use transform="matrix(0.010850694444444444,0,0,0.010850694444444444,13.35720486111111,0)" xlink:href="#k"/><use transform="matrix(0.010850694444444444,0,0,0.010850694444444444,26.48654513888889,0)" xlink:href="#l"/></g><path d="M98-1322v-168h1126v168H757V0H567v-1322H98" id="m"/><path d="M338-670V0H158v-1490h180v566c73-149 190-208 336-208 226 0 379 139 379 422V0H872v-695c0-172-96-275-252-275-161 0-282 109-282 300" id="n"/><path d="M628 24c-324 0-524-230-524-574 0-343 198-582 503-582 237 0 487 146 487 559v75H286c9 234 145 362 343 362 132 0 231-58 273-172l174 48C1024-91 857 24 628 24zM287-650h624c-17-190-120-322-304-322-192 0-309 151-320 322" id="o"/><g id="c"><use transform="matrix(0.006510416666666667,0,0,0.006510416666666667,0,0)" xlink:href="#m"/><use transform="matrix(0.006510416666666667,0,0,0.006510416666666667,8.606770833333334,0)" xlink:href="#n"/><use transform="matrix(0.006510416666666667,0,0,0.006510416666666667,16.490885416666668,0)" xlink:href="#o"/></g><path d="M180 0v-1490h510c348 0 508 209 508 474 0 266-160 477-507 477H370V0H180zm190-706h312c236 0 327-133 327-310 0-176-91-307-329-307H370v617" id="p"/><path d="M613 24c-304 0-509-231-509-576 0-350 205-580 509-580 305 0 511 230 511 580 0 345-206 576-511 576zm0-161c226 0 329-195 329-415 0-222-103-419-329-419-223 0-326 196-326 419 0 220 103 415 326 415" id="q"/><path d="M481 0L54-1118h197c107 314 236 620 325 951 87-331 217-637 324-951h197L670 0H481" id="r"/><path d="M613 24c-304 0-509-231-509-576 0-350 205-580 509-580 216 0 392 114 453 309l-173 49c-33-115-133-197-280-197-223 0-326 196-326 419 0 220 103 415 326 415 150 0 252-85 285-206l172 49C1010-95 832 24 613 24" id="s"/><path d="M158 0v-1118h180V0H158zm91-1301c-68 0-125-53-125-119s57-119 125-119c69 0 126 53 126 119s-57 119-126 119" id="t"/><g id="d"><use transform="matrix(0.006510416666666667,0,0,0.006510416666666667,0,0)" xlink:href="#p"/><use transform="matrix(0.006510416666666667,0,0,0.006510416666666667,8.515625,0)" xlink:href="#i"/><use transform="matrix(0.006510416666666667,0,0,0.006510416666666667,13.313802083333334,0)" xlink:href="#q"/><use transform="matrix(0.006510416666666667,0,0,0.006510416666666667,21.048177083333336,0)" xlink:href="#r"/><use transform="matrix(0.006510416666666667,0,0,0.006510416666666667,28.28125,0)" xlink:href="#q"/><use transform="matrix(0.006510416666666667,0,0,0.006510416666666667,36.276041666666664,0)" xlink:href="#s"/><use transform="matrix(0.006510416666666667,0,0,0.006510416666666667,44.0234375,0)" xlink:href="#h"/><use transform="matrix(0.006510416666666667,0,0,0.006510416666666667,51.510416666666664,0)" xlink:href="#g"/><use transform="matrix(0.006510416666666667,0,0,0.006510416666666667,55.87239583333332,0)" xlink:href="#t"/><use transform="matrix(0.006510416666666667,0,0,0.006510416666666667,59.10156249999999,0)" xlink:href="#q"/><use transform="matrix(0.006510416666666667,0,0,0.006510416666666667,67.09635416666666,0)" xlink:href="#k"/></g><g id="e"><use transform="matrix(0.006510416666666667,0,0,0.006510416666666667,0,0)" xlink:href="#p"/><use transform="matrix(0.006510416666666667,0,0,0.006510416666666667,8.515625,0)" xlink:href="#h"/><use transform="matrix(0.006510416666666667,0,0,0.006510416666666667,16.002604166666668,0)" xlink:href="#g"/><use transform="matrix(0.006510416666666667,0,0,0.006510416666666667,20.364583333333336,0)" xlink:href="#n"/></g></defs></g></svg>