<svg xmlns="http://www.w3.org/2000/svg" xmlns:xlink="http://www.w3.org/1999/xlink" xmlns:lucid="lucid" width="1788.48" height="421.5"><g transform="translate(432.0097223729043 -379)" lucid:page-tab-id="0_0"><path d="M-430.75 624.65l663.96 2.23.1-25.25 45.27 50.65-45.62 50.34.1-25.25-663.97-2.23z" stroke="#000" stroke-width="2" fill="#fcce14"/><path d="M-196.13 546.8a6 6 0 0 1 6-6h228a6 6 0 0 1 6 6v48a6 6 0 0 1-6 6h-228a6 6 0 0 1-6-6z" fill="none"/><use xlink:href="#a" transform="matrix(1,0,0,1,-196.1299885022935,540.8038706673733) translate(3.984375 21.95095486111111)"/><use xlink:href="#b" transform="matrix(1,0,0,1,-196.1299885022935,540.8038706673733) translate(83.97569444444444 21.95095486111111)"/><use xlink:href="#c" transform="matrix(1,0,0,1,-196.1299885022935,540.8038706673733) translate(119.49001736111111 21.95095486111111)"/><use xlink:href="#d" transform="matrix(1,0,0,1,-196.1299885022935,540.8038706673733) translate(159.10590277777777 21.95095486111111)"/><use xlink:href="#e" transform="matrix(1,0,0,1,-196.1299885022935,540.8038706673733) translate(46.898871527777786 54.21657986111111)"/><use xlink:href="#f" transform="matrix(1,0,0,1,-196.1299885022935,540.8038706673733) translate(135.83116319444446 54.21657986111111)"/><path d="M279.8 625.85l62.52.2.1-25.04 44.9 50.27-45.25 49.95.08-25.05-62.5-.2z" stroke="#000" stroke-width="2" fill="#9391ff"/><path d="M180 525.4a6 6 0 0 1 6-6h204.47a6 6 0 0 1 6 6v68a6 6 0 0 1-6 6H186a6 6 0 0 1-6-6z" fill="none"/><use xlink:href="#g" transform="matrix(1,0,0,1,180,519.3965433050904) translate(12.775173611111128 31.95095486111111)"/><use xlink:href="#h" transform="matrix(1,0,0,1,180,519.3965433050904) translate(79.85416666666667 31.95095486111111)"/><use xlink:href="#i" transform="matrix(1,0,0,1,180,519.3965433050904) translate(52.53754340277777 64.21657986111111)"/><use xlink:href="#j" transform="matrix(1,0,0,1,180,519.3965433050904) translate(102.76540798611111 64.21657986111111)"/><path d="M388.85 625.72l284.04.95.07-25.5 45.76 51.17-46.1 50.88.1-25.5-284.05-.97z" stroke="#000" stroke-width="2" fill="#6db1ff"/><path d="M445.5 525.4a6 6 0 0 1 6-6H656a6 6 0 0 1 6 6v68a6 6 0 0 1-6 6H451.5a6 6 0 0 1-6-6z" fill="none"/><use xlink:href="#k" transform="matrix(1,0,0,1,445.513047129837,519.3965433050904) translate(41.19856770833334 21.52777777777778)"/><use xlink:href="#l" transform="matrix(1,0,0,1,445.513047129837,519.3965433050904) translate(93.8244357638889 21.52777777777778)"/><use xlink:href="#m" transform="matrix(1,0,0,1,445.513047129837,519.3965433050904) translate(31.975477430555557 53.79340277777778)"/><use xlink:href="#n" transform="matrix(1,0,0,1,445.513047129837,519.3965433050904) translate(141.0466579861111 53.79340277777778)"/><use xlink:href="#o" transform="matrix(1,0,0,1,445.513047129837,519.3965433050904) translate(43.03233506944444 86.05902777777777)"/><use xlink:href="#j" transform="matrix(1,0,0,1,445.513047129837,519.3965433050904) translate(112.27061631944444 86.05902777777777)"/><path d="M-431 380h819.6v80H-431z" stroke="#000" stroke-width="2" fill="#e5e5e5"/><use xlink:href="#p" transform="matrix(1,0,0,1,-426.0009743554815,385) translate(121.376953125 49.6875)"/><use xlink:href="#q" transform="matrix(1,0,0,1,-426.0009743554815,385) translate(309.677734375 49.6875)"/><use xlink:href="#r" transform="matrix(1,0,0,1,-426.0009743554815,385) translate(484.072265625 49.6875)"/><path d="M718.82 628.72l76.83.25.1-24.77 44.42 49.7-44.77 49.4.1-24.77-76.85-.26z" stroke="#000" stroke-width="2" fill="#54c45e"/><path d="M676.47 506a6 6 0 0 1 6-6H854a6 6 0 0 1 6 6v87.4a6 6 0 0 1-6 6H682.47a6 6 0 0 1-6-6z" fill="none"/><g><use xlink:href="#s" transform="matrix(1,0,0,1,676.4721002026911,500) translate(22.712890625 25.818142361111114)"/><use xlink:href="#n" transform="matrix(1,0,0,1,676.4721002026911,500) translate(117.30924479166667 25.818142361111114)"/><use xlink:href="#t" transform="matrix(1,0,0,1,676.4721002026911,500) translate(25.680555555555557 58.083767361111114)"/><use xlink:href="#u" transform="matrix(1,0,0,1,676.4721002026911,500) translate(112.37760416666667 58.083767361111114)"/><use xlink:href="#v" transform="matrix(1,0,0,1,676.4721002026911,500) translate(59.887369791666664 90.34939236111111)"/></g><g><path d="M840.6 629.46l284.03.95.1-25.5 45.75 51.18-46.1 50.88.08-25.52-284.04-.95z" stroke="#000" stroke-width="2" fill="#6db1ff"/></g><path d="M901.76 536.8a6 6 0 0 1 6-6h204.48a6 6 0 0 1 6 6v68a6 6 0 0 1-6 6H907.76a6 6 0 0 1-6-6z" fill="none"/><g><use xlink:href="#w" transform="matrix(1,0,0,1,901.7639498986545,530.8038706673733) translate(7.686197916666686 21.52777777777778)"/><use xlink:href="#x" transform="matrix(1,0,0,1,901.7639498986545,530.8038706673733) translate(62.308593750000014 21.52777777777778)"/><use xlink:href="#y" transform="matrix(1,0,0,1,901.7639498986545,530.8038706673733) translate(170.0993923611111 21.52777777777778)"/><use xlink:href="#z" transform="matrix(1,0,0,1,901.7639498986545,530.8038706673733) translate(27.09266493055557 53.79340277777778)"/><use xlink:href="#A" transform="matrix(1,0,0,1,901.7639498986545,530.8038706673733) translate(87.08615451388889 53.79340277777778)"/><use xlink:href="#B" transform="matrix(1,0,0,1,901.7639498986545,530.8038706673733) translate(62.96506076388889 86.05902777777777)"/></g><g><path d="M1171.82 630.12l76.84.26.08-24.78 44.43 49.7-44.76 49.4.1-24.77-76.84-.25z" stroke="#000" stroke-width="2" fill="#54c45e"/></g><path d="M1140 506a6 6 0 0 1 6-6h204.47a6 6 0 0 1 6 6v68a6 6 0 0 1-6 6H1146a6 6 0 0 1-6-6z" fill="none"/><g><use xlink:href="#C" transform="matrix(1,0,0,1,1140,500) translate(27.35308159722223 21.52777777777778)"/><use xlink:href="#D" transform="matrix(1,0,0,1,1140,500) translate(106.42209201388889 21.52777777777778)"/><use xlink:href="#E" transform="matrix(1,0,0,1,1140,500) translate(133.04969618055554 21.52777777777778)"/><use xlink:href="#F" transform="matrix(1,0,0,1,1140,500) translate(39.2834201388889 53.79340277777778)"/><use xlink:href="#n" transform="matrix(1,0,0,1,1140,500) translate(133.73871527777777 53.79340277777778)"/><use xlink:href="#G" transform="matrix(1,0,0,1,1140,500) translate(22.931423611111114 86.05902777777777)"/><use xlink:href="#j" transform="matrix(1,0,0,1,1140,500) translate(132.37152777777777 86.05902777777777)"/></g><path d="M-431 461.5v4.9m0 4.9v9.8m0 4.9v9.8m0 4.9v9.8m0 4.88v9.8m0 4.9v9.8m0 4.9v9.8m0 4.9v9.8m0 4.9v9.78m0 4.9v9.8m0 4.9v9.8m0 4.9v9.8m0 4.9v9.8m0 4.88v9.8m0 4.9v9.8m0 4.9v9.8m0 4.9v9.8m0 4.9v9.78m0 4.9v9.8m0 4.9v9.8m0 4.9v9.8m0 4.9v9.8m0 4.9v9.78m0 4.9v4.9" stroke="#3a414a" fill="none"/><path d="M-430.54 461.5h-.95v-.5h.96z" stroke="#3a414a" stroke-width=".05" fill="#3a414a"/><path d="M-431 799.5v.5M388.6 461.5v5.1m0 5.1v10.22m0 5.1v10.22m0 5.1v10.22m0 5.1v10.22m0 5.1v10.22m0 5.1v10.22m0 5.1v10.2m0 5.12v10.2m0 5.12v10.2m0 5.12v10.2m0 5.1V635.1m0 5.1v10.22m0 5.1v10.22m0 5.1v10.22m0 5.1v10.22m0 5.1v10.22m0 5.1v10.22m0 5.1v10.2m0 5.12v10.2m0 5.12v10.2m0 5.12v10.2m0 5.1v5.12" stroke="#3a414a" fill="none"/><path d="M389.07 461.5h-.95v-.5h.95z" stroke="#3a414a" stroke-width=".05" fill="#3a414a"/><path d="M388.6 798.5v.5" stroke="#3a414a" fill="none"/><defs><path d="M657 26c-323 0-524-166-541-416h195c15 169 171 246 346 246 202 0 356-106 356-265 5-203-294-238-475-293-239-73-380-191-380-389 0-252 224-419 512-419 294 0 499 171 508 396H992c-17-145-151-228-328-228-193 0-321 102-321 242 0 156 175 211 284 241l149 41c160 44 422 134 422 412 0 244-197 432-541 432" id="H"/><path d="M628 24c-324 0-524-230-524-574 0-343 198-582 503-582 237 0 487 146 487 559v75H286c9 234 145 362 343 362 132 0 231-58 273-172l174 48C1024-91 857 24 628 24zM287-650h624c-17-190-120-322-304-322-192 0-309 151-320 322" id="I"/><path d="M471 26C259 26 90-98 90-318c0-256 228-303 435-329 202-27 287-16 287-108 0-139-79-219-234-219-161 0-248 86-283 164l-173-57c86-203 278-265 451-265 150 0 419 46 419 395V0H815v-152h-12C765-73 660 26 471 26zm31-159c199 0 310-134 310-271v-155c-30 35-226 55-295 64-131 17-246 59-246 186 0 116 97 176 231 176" id="J"/><path d="M158 0v-1118h174v172h12c41-113 157-188 290-188 26 0 70 2 91 3v181c-11-2-60-10-108-10-161 0-279 109-279 260V0H158" id="K"/><path d="M613 24c-304 0-509-231-509-576 0-350 205-580 509-580 216 0 392 114 453 309l-173 49c-33-115-133-197-280-197-223 0-326 196-326 419 0 220 103 415 326 415 150 0 252-85 285-206l172 49C1010-95 832 24 613 24" id="L"/><path d="M338-670V0H158v-1490h180v566c73-149 190-208 336-208 226 0 379 139 379 422V0H872v-695c0-172-96-275-252-275-161 0-282 109-282 300" id="M"/><g id="a"><use transform="matrix(0.010850694444444444,0,0,0.010850694444444444,0,0)" xlink:href="#H"/><use transform="matrix(0.010850694444444444,0,0,0.010850694444444444,14.2578125,0)" xlink:href="#I"/><use transform="matrix(0.010850694444444444,0,0,0.010850694444444444,27.43055555555556,0)" xlink:href="#J"/><use transform="matrix(0.010850694444444444,0,0,0.010850694444444444,39.90885416666667,0)" xlink:href="#K"/><use transform="matrix(0.010850694444444444,0,0,0.010850694444444444,47.90581597222222,0)" xlink:href="#L"/><use transform="matrix(0.010850694444444444,0,0,0.010850694444444444,60.60112847222222,0)" xlink:href="#M"/></g><path d="M678-1118v154H420V0H240v-964H20v-154h220v-149c0-194 155-293 318-293 85 0 141 18 168 30l-50 154c-19-6-47-17-97-17-111 0-159 58-159 166v109h258" id="N"/><path d="M613 24c-304 0-509-231-509-576 0-350 205-580 509-580 305 0 511 230 511 580 0 345-206 576-511 576zm0-161c226 0 329-195 329-415 0-222-103-419-329-419-223 0-326 196-326 419 0 220 103 415 326 415" id="O"/><g id="b"><use transform="matrix(0.010850694444444444,0,0,0.010850694444444444,0,0)" xlink:href="#N"/><use transform="matrix(0.010850694444444444,0,0,0.010850694444444444,7.573784722222222,0)" xlink:href="#O"/><use transform="matrix(0.010850694444444444,0,0,0.010850694444444444,20.8984375,0)" xlink:href="#K"/></g><path d="M598-1118v154H368v674c0 100 37 144 132 144 23 0 62-6 92-12L629-6c-37 13-88 20-134 20-193 0-307-107-307-290v-688H20v-154h168v-266h180v266h230" id="P"/><g id="c"><use transform="matrix(0.010850694444444444,0,0,0.010850694444444444,0,0)" xlink:href="#P"/><use transform="matrix(0.010850694444444444,0,0,0.010850694444444444,7.269965277777778,0)" xlink:href="#M"/><use transform="matrix(0.010850694444444444,0,0,0.010850694444444444,20.41015625,0)" xlink:href="#I"/></g><path d="M158 418v-1536h174v179h20c37-59 106-193 324-193 279 0 474 222 474 576 0 356-194 580-473 580-213 0-288-135-325-197h-14v591H158zm492-555c209 0 317-186 317-421 0-232-105-413-317-413-206 0-314 166-314 413 0 249 111 421 314 421" id="Q"/><path d="M158 0v-1118h180V0H158zm91-1301c-68 0-125-53-125-119s57-119 125-119c69 0 126 53 126 119s-57 119-126 119" id="R"/><path d="M158 0v-1118h175l1 205c55-151 181-225 313-225 147 0 245 90 285 228 53-141 190-228 352-228 194 0 352 125 352 384V0h-181v-749c0-161-105-225-225-225-151 0-243 103-243 244V0H807v-767c0-124-93-207-219-207-131 0-250 92-250 270V0H158" id="S"/><path d="M338-1490V0H158v-1490h180" id="T"/><g id="d"><use transform="matrix(0.010850694444444444,0,0,0.010850694444444444,0,0)" xlink:href="#O"/><use transform="matrix(0.010850694444444444,0,0,0.010850694444444444,13.324652777777777,0)" xlink:href="#Q"/><use transform="matrix(0.010850694444444444,0,0,0.010850694444444444,26.931423611111104,0)" xlink:href="#P"/><use transform="matrix(0.010850694444444444,0,0,0.010850694444444444,34.201388888888886,0)" xlink:href="#R"/><use transform="matrix(0.010850694444444444,0,0,0.010850694444444444,39.58333333333333,0)" xlink:href="#S"/><use transform="matrix(0.010850694444444444,0,0,0.010850694444444444,59.04947916666666,0)" xlink:href="#J"/><use transform="matrix(0.010850694444444444,0,0,0.010850694444444444,71.52777777777777,0)" xlink:href="#T"/></g><path d="M538 24C308 24 148-78 108-271l171-41c32 123 123 178 257 178 156 0 256-77 256-169 0-77-54-128-164-154l-186-44c-203-48-300-148-300-305 0-192 176-326 414-326 230 0 351 112 402 269l-163 42c-31-80-94-158-238-158-133 0-233 69-233 162 0 83 57 129 188 160l169 40c203 48 298 149 298 302 0 196-179 339-441 339" id="U"/><path d="M537 14c-226 0-379-139-379-422v-710h180v695c0 172 97 275 253 275 160 0 281-109 281-300v-670h181V0H879v-209C806-46 684 14 537 14" id="V"/><path d="M338-670V0H158v-1118h173l1 207c72-158 192-221 342-221 226 0 378 139 378 422V0H872v-695c0-172-96-275-252-275-161 0-282 109-282 300" id="W"/><g id="e"><use transform="matrix(0.010850694444444444,0,0,0.010850694444444444,0,0)" xlink:href="#U"/><use transform="matrix(0.010850694444444444,0,0,0.010850694444444444,11.729600694444445,0)" xlink:href="#O"/><use transform="matrix(0.010850694444444444,0,0,0.010850694444444444,25.05425347222222,0)" xlink:href="#T"/><use transform="matrix(0.010850694444444444,0,0,0.010850694444444444,30.436197916666664,0)" xlink:href="#V"/><use transform="matrix(0.010850694444444444,0,0,0.010850694444444444,43.576388888888886,0)" xlink:href="#P"/><use transform="matrix(0.010850694444444444,0,0,0.010850694444444444,50.846354166666664,0)" xlink:href="#R"/><use transform="matrix(0.010850694444444444,0,0,0.010850694444444444,56.22829861111111,0)" xlink:href="#O"/><use transform="matrix(0.010850694444444444,0,0,0.010850694444444444,69.55295138888889,0)" xlink:href="#W"/></g><g id="f"><use transform="matrix(0.010850694444444444,0,0,0.010850694444444444,0,0)" xlink:href="#J"/><use transform="matrix(0.010850694444444444,0,0,0.010850694444444444,12.47829861111111,0)" xlink:href="#T"/><use transform="matrix(0.010850694444444444,0,0,0.010850694444444444,17.860243055555557,0)" xlink:href="#O"/><use transform="matrix(0.010850694444444444,0,0,0.010850694444444444,31.184895833333336,0)" xlink:href="#W"/><use transform="matrix(0.010850694444444444,0,0,0.010850694444444444,44.314236111111114,0)" xlink:href="#I"/></g><g id="g"><use transform="matrix(0.010850694444444444,0,0,0.010850694444444444,0,0)" xlink:href="#H"/><use transform="matrix(0.010850694444444444,0,0,0.010850694444444444,14.2578125,0)" xlink:href="#M"/><use transform="matrix(0.010850694444444444,0,0,0.010850694444444444,27.39800347222222,0)" xlink:href="#J"/><use transform="matrix(0.010850694444444444,0,0,0.010850694444444444,39.87630208333333,0)" xlink:href="#K"/><use transform="matrix(0.010850694444444444,0,0,0.010850694444444444,47.87326388888888,0)" xlink:href="#I"/></g><path d="M481 0L54-1118h197c107 314 236 620 325 951 87-331 217-637 324-951h197L670 0H481" id="X"/><g id="h"><use transform="matrix(0.010850694444444444,0,0,0.010850694444444444,0,0)" xlink:href="#Q"/><use transform="matrix(0.010850694444444444,0,0,0.010850694444444444,13.606770833333332,0)" xlink:href="#K"/><use transform="matrix(0.010850694444444444,0,0,0.010850694444444444,21.603732638888886,0)" xlink:href="#O"/><use transform="matrix(0.010850694444444444,0,0,0.010850694444444444,34.494357638888886,0)" xlink:href="#X"/><use transform="matrix(0.010850694444444444,0,0,0.010850694444444444,46.549479166666664,0)" xlink:href="#O"/><use transform="matrix(0.010850694444444444,0,0,0.010850694444444444,59.87413194444444,0)" xlink:href="#L"/><use transform="matrix(0.010850694444444444,0,0,0.010850694444444444,72.78645833333333,0)" xlink:href="#J"/><use transform="matrix(0.010850694444444444,0,0,0.010850694444444444,85.26475694444444,0)" xlink:href="#P"/><use transform="matrix(0.010850694444444444,0,0,0.010850694444444444,92.53472222222221,0)" xlink:href="#R"/><use transform="matrix(0.010850694444444444,0,0,0.010850694444444444,97.91666666666666,0)" xlink:href="#O"/><use transform="matrix(0.010850694444444444,0,0,0.010850694444444444,111.24131944444441,0)" xlink:href="#W"/></g><path d="M409 0L70-1118h191c89 329 165 560 243 925 75-353 154-601 240-925h192c85 325 161 564 235 922 77-354 157-598 244-922h191L1267 0h-179c-86-307-176-590-250-913C763-588 675-308 588 0H409" id="Y"/><g id="i"><use transform="matrix(0.010850694444444444,0,0,0.010850694444444444,0,0)" xlink:href="#Y"/><use transform="matrix(0.010850694444444444,0,0,0.010850694444444444,18.18576388888889,0)" xlink:href="#R"/><use transform="matrix(0.010850694444444444,0,0,0.010850694444444444,23.567708333333336,0)" xlink:href="#P"/><use transform="matrix(0.010850694444444444,0,0,0.010850694444444444,30.837673611111114,0)" xlink:href="#M"/></g><path d="M611 442c-248 0-391-105-460-228l146-94c47 65 117 165 314 165 178 0 307-82 307-266v-224h-17C863-141 792-18 576-18c-268 0-472-195-472-546 0-346 197-568 476-568 216 0 288 133 326 193h17v-179h175V29c0 289-215 413-487 413zm-5-620c203 0 314-146 314-390 0-237-108-403-314-403-213 0-319 180-319 403 0 230 109 390 319 390" id="Z"/><g id="j"><use transform="matrix(0.010850694444444444,0,0,0.010850694444444444,0,0)" xlink:href="#Z"/><use transform="matrix(0.010850694444444444,0,0,0.010850694444444444,13.628472222222221,0)" xlink:href="#K"/><use transform="matrix(0.010850694444444444,0,0,0.010850694444444444,21.62543402777778,0)" xlink:href="#O"/><use transform="matrix(0.010850694444444444,0,0,0.010850694444444444,34.95008680555556,0)" xlink:href="#V"/><use transform="matrix(0.010850694444444444,0,0,0.010850694444444444,48.09027777777778,0)" xlink:href="#Q"/></g><g id="k"><use transform="matrix(0.010850694444444444,0,0,0.010850694444444444,0,0)" xlink:href="#H"/><use transform="matrix(0.010850694444444444,0,0,0.010850694444444444,14.2578125,0)" xlink:href="#Q"/><use transform="matrix(0.010850694444444444,0,0,0.010850694444444444,27.864583333333332,0)" xlink:href="#R"/><use transform="matrix(0.010850694444444444,0,0,0.010850694444444444,33.24652777777778,0)" xlink:href="#W"/></g><path d="M158 0v-1490h180v865h22l478-493h223L593-638 1096 0H865L456-523 338-412V0H158" id="aa"/><g id="l"><use transform="matrix(0.010850694444444444,0,0,0.010850694444444444,0,0)" xlink:href="#U"/><use transform="matrix(0.010850694444444444,0,0,0.010850694444444444,11.729600694444445,0)" xlink:href="#I"/><use transform="matrix(0.010850694444444444,0,0,0.010850694444444444,24.68532986111111,0)" xlink:href="#I"/><use transform="matrix(0.010850694444444444,0,0,0.010850694444444444,37.64105902777778,0)" xlink:href="#aa"/><use transform="matrix(0.010850694444444444,0,0,0.010850694444444444,49.83723958333333,0)" xlink:href="#R"/><use transform="matrix(0.010850694444444444,0,0,0.010850694444444444,55.21918402777778,0)" xlink:href="#W"/><use transform="matrix(0.010850694444444444,0,0,0.010850694444444444,68.34852430555556,0)" xlink:href="#Z"/></g><g id="m"><use transform="matrix(0.010850694444444444,0,0,0.010850694444444444,0,0)" xlink:href="#J"/><use transform="matrix(0.010850694444444444,0,0,0.010850694444444444,12.47829861111111,0)" xlink:href="#T"/><use transform="matrix(0.010850694444444444,0,0,0.010850694444444444,17.860243055555557,0)" xlink:href="#R"/><use transform="matrix(0.010850694444444444,0,0,0.010850694444444444,23.2421875,0)" xlink:href="#Z"/><use transform="matrix(0.010850694444444444,0,0,0.010850694444444444,36.87065972222222,0)" xlink:href="#W"/><use transform="matrix(0.010850694444444444,0,0,0.010850694444444444,50,0)" xlink:href="#S"/><use transform="matrix(0.010850694444444444,0,0,0.010850694444444444,69.46614583333333,0)" xlink:href="#I"/><use transform="matrix(0.010850694444444444,0,0,0.010850694444444444,82.421875,0)" xlink:href="#W"/><use transform="matrix(0.010850694444444444,0,0,0.010850694444444444,95.55121527777777,0)" xlink:href="#P"/></g><g id="n"><use transform="matrix(0.010850694444444444,0,0,0.010850694444444444,0,0)" xlink:href="#Y"/><use transform="matrix(0.010850694444444444,0,0,0.010850694444444444,18.18576388888889,0)" xlink:href="#R"/><use transform="matrix(0.010850694444444444,0,0,0.010850694444444444,23.567708333333336,0)" xlink:href="#P"/><use transform="matrix(0.010850694444444444,0,0,0.010850694444444444,30.837673611111114,0)" xlink:href="#M"/></g><g id="o"><use transform="matrix(0.010850694444444444,0,0,0.010850694444444444,0,0)" xlink:href="#Y"/><use transform="matrix(0.010850694444444444,0,0,0.010850694444444444,18.18576388888889,0)" xlink:href="#M"/><use transform="matrix(0.010850694444444444,0,0,0.010850694444444444,31.32595486111111,0)" xlink:href="#O"/><use transform="matrix(0.010850694444444444,0,0,0.010850694444444444,44.650607638888886,0)" xlink:href="#T"/><use transform="matrix(0.010850694444444444,0,0,0.010850694444444444,50.03255208333333,0)" xlink:href="#I"/></g><path fill="#0c7cba" d="M180 0v-1490h908v168H370v486h669v168H370v500h727V0H180" id="ab"/><path fill="#0c7cba" d="M65 0l393-574-370-544h210c88 136 192 297 267 435 67-142 176-302 264-435h206L661-564 1053 0H844c-94-144-206-310-287-458C484-308 366-142 273 0H65" id="ac"/><path fill="#0c7cba" d="M158 418v-1536h174v179h20c37-59 106-193 324-193 279 0 474 222 474 576 0 356-194 580-473 580-213 0-288-135-325-197h-14v591H158zm492-555c209 0 317-186 317-421 0-232-105-413-317-413-206 0-314 166-314 413 0 249 111 421 314 421" id="ad"/><path fill="#0c7cba" d="M628 24c-324 0-524-230-524-574 0-343 198-582 503-582 237 0 487 146 487 559v75H286c9 234 145 362 343 362 132 0 231-58 273-172l174 48C1024-91 857 24 628 24zM287-650h624c-17-190-120-322-304-322-192 0-309 151-320 322" id="ae"/><path fill="#0c7cba" d="M613 24c-304 0-509-231-509-576 0-350 205-580 509-580 216 0 392 114 453 309l-173 49c-33-115-133-197-280-197-223 0-326 196-326 419 0 220 103 415 326 415 150 0 252-85 285-206l172 49C1010-95 832 24 613 24" id="af"/><path fill="#0c7cba" d="M598-1118v154H368v674c0 100 37 144 132 144 23 0 62-6 92-12L629-6c-37 13-88 20-134 20-193 0-307-107-307-290v-688H20v-154h168v-266h180v266h230" id="ag"/><path fill="#0c7cba" d="M577 24c-279 0-473-224-473-580 0-354 195-576 474-576 218 0 287 134 324 193h14v-551h180V0H922v-173h-20C865-111 790 24 577 24zm27-161c203 0 314-172 314-421 0-247-108-413-314-413-212 0-317 181-317 413 0 235 108 421 317 421" id="ah"/><g id="p"><use transform="matrix(0.01953125,0,0,0.01953125,0,0)" xlink:href="#ab"/><use transform="matrix(0.01953125,0,0,0.01953125,24.04296875,0)" xlink:href="#ac"/><use transform="matrix(0.01953125,0,0,0.01953125,45.87890625,0)" xlink:href="#ad"/><use transform="matrix(0.01953125,0,0,0.01953125,70.37109375,0)" xlink:href="#ae"/><use transform="matrix(0.01953125,0,0,0.01953125,93.69140625,0)" xlink:href="#af"/><use transform="matrix(0.01953125,0,0,0.01953125,116.54296875,0)" xlink:href="#ag"/><use transform="matrix(0.01953125,0,0,0.01953125,129.23828125,0)" xlink:href="#ae"/><use transform="matrix(0.01953125,0,0,0.01953125,152.55859375,0)" xlink:href="#ah"/></g><path fill="#0c7cba" d="M645 0H180v-1490h484c435 0 692 280 692 742 0 466-257 748-711 748zM370-168h263c363 0 539-218 539-580 0-358-176-574-521-574H370v1154" id="ai"/><path fill="#0c7cba" d="M158 0v-1118h180V0H158zm91-1301c-68 0-125-53-125-119s57-119 125-119c69 0 126 53 126 119s-57 119-126 119" id="aj"/><path fill="#0c7cba" d="M538 24C308 24 148-78 108-271l171-41c32 123 123 178 257 178 156 0 256-77 256-169 0-77-54-128-164-154l-186-44c-203-48-300-148-300-305 0-192 176-326 414-326 230 0 351 112 402 269l-163 42c-31-80-94-158-238-158-133 0-233 69-233 162 0 83 57 129 188 160l169 40c203 48 298 149 298 302 0 196-179 339-441 339" id="ak"/><path fill="#0c7cba" d="M613 24c-304 0-509-231-509-576 0-350 205-580 509-580 305 0 511 230 511 580 0 345-206 576-511 576zm0-161c226 0 329-195 329-415 0-222-103-419-329-419-223 0-326 196-326 419 0 220 103 415 326 415" id="al"/><path fill="#0c7cba" d="M338-670V0H158v-1118h173l1 207c72-158 192-221 342-221 226 0 378 139 378 422V0H872v-695c0-172-96-275-252-275-161 0-282 109-282 300" id="am"/><g id="q"><use transform="matrix(0.01953125,0,0,0.01953125,0,0)" xlink:href="#ai"/><use transform="matrix(0.01953125,0,0,0.01953125,28.8671875,0)" xlink:href="#ae"/><use transform="matrix(0.01953125,0,0,0.01953125,52.1875,0)" xlink:href="#af"/><use transform="matrix(0.01953125,0,0,0.01953125,75.0390625,0)" xlink:href="#aj"/><use transform="matrix(0.01953125,0,0,0.01953125,84.7265625,0)" xlink:href="#ak"/><use transform="matrix(0.01953125,0,0,0.01953125,105.83984375,0)" xlink:href="#aj"/><use transform="matrix(0.01953125,0,0,0.01953125,115.52734375,0)" xlink:href="#al"/><use transform="matrix(0.01953125,0,0,0.01953125,139.51171875,0)" xlink:href="#am"/></g><path fill="#0c7cba" d="M98-1322v-168h1126v168H757V0H567v-1322H98" id="an"/><path fill="#0c7cba" d="M158 0v-1118h175l1 205c55-151 181-225 313-225 147 0 245 90 285 228 53-141 190-228 352-228 194 0 352 125 352 384V0h-181v-749c0-161-105-225-225-225-151 0-243 103-243 244V0H807v-767c0-124-93-207-219-207-131 0-250 92-250 270V0H158" id="ao"/><path fill="#0c7cba" d="M678-1118v154H420V0H240v-964H20v-154h220v-149c0-194 155-293 318-293 85 0 141 18 168 30l-50 154c-19-6-47-17-97-17-111 0-159 58-159 166v109h258" id="ap"/><path fill="#0c7cba" d="M158 0v-1118h174v172h12c41-113 157-188 290-188 26 0 70 2 91 3v181c-11-2-60-10-108-10-161 0-279 109-279 260V0H158" id="aq"/><path fill="#0c7cba" d="M471 26C259 26 90-98 90-318c0-256 228-303 435-329 202-27 287-16 287-108 0-139-79-219-234-219-161 0-248 86-283 164l-173-57c86-203 278-265 451-265 150 0 419 46 419 395V0H815v-152h-12C765-73 660 26 471 26zm31-159c199 0 310-134 310-271v-155c-30 35-226 55-295 64-131 17-246 59-246 186 0 116 97 176 231 176" id="ar"/><g id="r"><use transform="matrix(0.01953125,0,0,0.01953125,0,0)" xlink:href="#an"/><use transform="matrix(0.01953125,0,0,0.01953125,25.8203125,0)" xlink:href="#aj"/><use transform="matrix(0.01953125,0,0,0.01953125,35.5078125,0)" xlink:href="#ao"/><use transform="matrix(0.01953125,0,0,0.01953125,70.546875,0)" xlink:href="#ae"/><use transform="matrix(0.01953125,0,0,0.01953125,93.8671875,0)" xlink:href="#ap"/><use transform="matrix(0.01953125,0,0,0.01953125,108.671875,0)" xlink:href="#aq"/><use transform="matrix(0.01953125,0,0,0.01953125,123.73046875,0)" xlink:href="#ar"/><use transform="matrix(0.01953125,0,0,0.01953125,146.19140625,0)" xlink:href="#ao"/><use transform="matrix(0.01953125,0,0,0.01953125,181.23046875,0)" xlink:href="#ae"/></g><path d="M180 0v-1490h908v168H370v486h669v168H370v500h727V0H180" id="as"/><g id="s"><use transform="matrix(0.010850694444444444,0,0,0.010850694444444444,0,0)" xlink:href="#as"/><use transform="matrix(0.010850694444444444,0,0,0.010850694444444444,13.35720486111111,0)" xlink:href="#U"/><use transform="matrix(0.010850694444444444,0,0,0.010850694444444444,25.08680555555556,0)" xlink:href="#L"/><use transform="matrix(0.010850694444444444,0,0,0.010850694444444444,37.99913194444444,0)" xlink:href="#J"/><use transform="matrix(0.010850694444444444,0,0,0.010850694444444444,50.47743055555556,0)" xlink:href="#T"/><use transform="matrix(0.010850694444444444,0,0,0.010850694444444444,55.859375,0)" xlink:href="#J"/><use transform="matrix(0.010850694444444444,0,0,0.010850694444444444,68.33767361111111,0)" xlink:href="#P"/><use transform="matrix(0.010850694444444444,0,0,0.010850694444444444,75.390625,0)" xlink:href="#I"/></g><g id="t"><use transform="matrix(0.010850694444444444,0,0,0.010850694444444444,0,0)" xlink:href="#S"/><use transform="matrix(0.010850694444444444,0,0,0.010850694444444444,19.466145833333332,0)" xlink:href="#R"/><use transform="matrix(0.010850694444444444,0,0,0.010850694444444444,24.84809027777778,0)" xlink:href="#U"/><use transform="matrix(0.010850694444444444,0,0,0.010850694444444444,36.57769097222222,0)" xlink:href="#U"/><use transform="matrix(0.010850694444444444,0,0,0.010850694444444444,48.307291666666664,0)" xlink:href="#R"/><use transform="matrix(0.010850694444444444,0,0,0.010850694444444444,53.68923611111111,0)" xlink:href="#W"/><use transform="matrix(0.010850694444444444,0,0,0.010850694444444444,66.81857638888889,0)" xlink:href="#Z"/></g><path d="M577 24c-279 0-473-224-473-580 0-354 195-576 474-576 218 0 287 134 324 193h14v-551h180V0H922v-173h-20C865-111 790 24 577 24zm27-161c203 0 314-172 314-421 0-247-108-413-314-413-212 0-317 181-317 413 0 235 108 421 317 421" id="at"/><g id="u"><use transform="matrix(0.010850694444444444,0,0,0.010850694444444444,0,0)" xlink:href="#at"/><use transform="matrix(0.010850694444444444,0,0,0.010850694444444444,13.606770833333332,0)" xlink:href="#J"/><use transform="matrix(0.010850694444444444,0,0,0.010850694444444444,26.085069444444443,0)" xlink:href="#P"/><use transform="matrix(0.010850694444444444,0,0,0.010850694444444444,33.463541666666664,0)" xlink:href="#J"/></g><g id="v"><use transform="matrix(0.010850694444444444,0,0,0.010850694444444444,0,0)" xlink:href="#Q"/><use transform="matrix(0.010850694444444444,0,0,0.010850694444444444,13.606770833333332,0)" xlink:href="#O"/><use transform="matrix(0.010850694444444444,0,0,0.010850694444444444,26.931423611111104,0)" xlink:href="#R"/><use transform="matrix(0.010850694444444444,0,0,0.010850694444444444,32.31336805555555,0)" xlink:href="#W"/><use transform="matrix(0.010850694444444444,0,0,0.010850694444444444,45.44270833333333,0)" xlink:href="#P"/><use transform="matrix(0.010850694444444444,0,0,0.010850694444444444,52.49565972222222,0)" xlink:href="#U"/></g><path d="M645 0H180v-1490h484c435 0 692 280 692 742 0 466-257 748-711 748zM370-168h263c363 0 539-218 539-580 0-358-176-574-521-574H370v1154" id="au"/><g id="w"><use transform="matrix(0.010850694444444444,0,0,0.010850694444444444,0,0)" xlink:href="#au"/><use transform="matrix(0.010850694444444444,0,0,0.010850694444444444,16.03732638888889,0)" xlink:href="#J"/><use transform="matrix(0.010850694444444444,0,0,0.010850694444444444,28.515625,0)" xlink:href="#P"/><use transform="matrix(0.010850694444444444,0,0,0.010850694444444444,35.89409722222222,0)" xlink:href="#J"/></g><g id="x"><use transform="matrix(0.010850694444444444,0,0,0.010850694444444444,0,0)" xlink:href="#L"/><use transform="matrix(0.010850694444444444,0,0,0.010850694444444444,12.6953125,0)" xlink:href="#O"/><use transform="matrix(0.010850694444444444,0,0,0.010850694444444444,26.01996527777778,0)" xlink:href="#T"/><use transform="matrix(0.010850694444444444,0,0,0.010850694444444444,31.40190972222222,0)" xlink:href="#T"/><use transform="matrix(0.010850694444444444,0,0,0.010850694444444444,36.783854166666664,0)" xlink:href="#I"/><use transform="matrix(0.010850694444444444,0,0,0.010850694444444444,49.73958333333333,0)" xlink:href="#L"/><use transform="matrix(0.010850694444444444,0,0,0.010850694444444444,62.43489583333333,0)" xlink:href="#P"/><use transform="matrix(0.010850694444444444,0,0,0.010850694444444444,69.7048611111111,0)" xlink:href="#R"/><use transform="matrix(0.010850694444444444,0,0,0.010850694444444444,75.08680555555554,0)" xlink:href="#O"/><use transform="matrix(0.010850694444444444,0,0,0.010850694444444444,88.41145833333331,0)" xlink:href="#W"/></g><g id="y"><use transform="matrix(0.010850694444444444,0,0,0.010850694444444444,0,0)" xlink:href="#J"/><use transform="matrix(0.010850694444444444,0,0,0.010850694444444444,12.47829861111111,0)" xlink:href="#W"/><use transform="matrix(0.010850694444444444,0,0,0.010850694444444444,25.60763888888889,0)" xlink:href="#at"/></g><g id="z"><use transform="matrix(0.010850694444444444,0,0,0.010850694444444444,0,0)" xlink:href="#S"/><use transform="matrix(0.010850694444444444,0,0,0.010850694444444444,19.466145833333332,0)" xlink:href="#O"/><use transform="matrix(0.010850694444444444,0,0,0.010850694444444444,32.79079861111111,0)" xlink:href="#K"/><use transform="matrix(0.010850694444444444,0,0,0.010850694444444444,40.78776041666666,0)" xlink:href="#I"/></g><g id="A"><use transform="matrix(0.010850694444444444,0,0,0.010850694444444444,0,0)" xlink:href="#J"/><use transform="matrix(0.010850694444444444,0,0,0.010850694444444444,12.47829861111111,0)" xlink:href="#T"/><use transform="matrix(0.010850694444444444,0,0,0.010850694444444444,17.860243055555557,0)" xlink:href="#R"/><use transform="matrix(0.010850694444444444,0,0,0.010850694444444444,23.2421875,0)" xlink:href="#Z"/><use transform="matrix(0.010850694444444444,0,0,0.010850694444444444,36.87065972222222,0)" xlink:href="#W"/><use transform="matrix(0.010850694444444444,0,0,0.010850694444444444,50,0)" xlink:href="#S"/><use transform="matrix(0.010850694444444444,0,0,0.010850694444444444,69.46614583333333,0)" xlink:href="#I"/><use transform="matrix(0.010850694444444444,0,0,0.010850694444444444,82.421875,0)" xlink:href="#W"/><use transform="matrix(0.010850694444444444,0,0,0.010850694444444444,95.55121527777777,0)" xlink:href="#P"/></g><g id="B"><use transform="matrix(0.010850694444444444,0,0,0.010850694444444444,0,0)" xlink:href="#J"/><use transform="matrix(0.010850694444444444,0,0,0.010850694444444444,12.47829861111111,0)" xlink:href="#P"/><use transform="matrix(0.010850694444444444,0,0,0.010850694444444444,19.205729166666668,0)" xlink:href="#P"/><use transform="matrix(0.010850694444444444,0,0,0.010850694444444444,26.25868055555556,0)" xlink:href="#I"/><use transform="matrix(0.010850694444444444,0,0,0.010850694444444444,39.21440972222222,0)" xlink:href="#S"/><use transform="matrix(0.010850694444444444,0,0,0.010850694444444444,58.68055555555555,0)" xlink:href="#Q"/><use transform="matrix(0.010850694444444444,0,0,0.010850694444444444,72.28732638888889,0)" xlink:href="#P"/><use transform="matrix(0.010850694444444444,0,0,0.010850694444444444,79.34027777777777,0)" xlink:href="#U"/></g><path d="M180 0v-1490h901v168H370v510h643v168H370V0H180" id="av"/><g id="C"><use transform="matrix(0.010850694444444444,0,0,0.010850694444444444,0,0)" xlink:href="#av"/><use transform="matrix(0.010850694444444444,0,0,0.010850694444444444,12.239583333333332,0)" xlink:href="#O"/><use transform="matrix(0.010850694444444444,0,0,0.010850694444444444,25.564236111111104,0)" xlink:href="#K"/><use transform="matrix(0.010850694444444444,0,0,0.010850694444444444,33.561197916666664,0)" xlink:href="#L"/><use transform="matrix(0.010850694444444444,0,0,0.010850694444444444,46.256510416666664,0)" xlink:href="#I"/><use transform="matrix(0.010850694444444444,0,0,0.010850694444444444,59.21223958333333,0)" xlink:href="#at"/></g><g id="D"><use transform="matrix(0.010850694444444444,0,0,0.010850694444444444,0,0)" xlink:href="#P"/><use transform="matrix(0.010850694444444444,0,0,0.010850694444444444,7.052951388888888,0)" xlink:href="#O"/></g><g id="E"><use transform="matrix(0.010850694444444444,0,0,0.010850694444444444,0,0)" xlink:href="#S"/><use transform="matrix(0.010850694444444444,0,0,0.010850694444444444,19.466145833333332,0)" xlink:href="#J"/><use transform="matrix(0.010850694444444444,0,0,0.010850694444444444,31.944444444444443,0)" xlink:href="#aa"/><use transform="matrix(0.010850694444444444,0,0,0.010850694444444444,43.64149305555556,0)" xlink:href="#I"/></g><g id="F"><use transform="matrix(0.010850694444444444,0,0,0.010850694444444444,0,0)" xlink:href="#at"/><use transform="matrix(0.010850694444444444,0,0,0.010850694444444444,13.606770833333332,0)" xlink:href="#I"/><use transform="matrix(0.010850694444444444,0,0,0.010850694444444444,26.5625,0)" xlink:href="#L"/><use transform="matrix(0.010850694444444444,0,0,0.010850694444444444,39.2578125,0)" xlink:href="#R"/><use transform="matrix(0.010850694444444444,0,0,0.010850694444444444,44.63975694444444,0)" xlink:href="#U"/><use transform="matrix(0.010850694444444444,0,0,0.010850694444444444,56.369357638888886,0)" xlink:href="#R"/><use transform="matrix(0.010850694444444444,0,0,0.010850694444444444,61.75130208333333,0)" xlink:href="#O"/><use transform="matrix(0.010850694444444444,0,0,0.010850694444444444,75.0759548611111,0)" xlink:href="#W"/></g><g id="G"><use transform="matrix(0.010850694444444444,0,0,0.010850694444444444,0,0)" xlink:href="#N"/><use transform="matrix(0.010850694444444444,0,0,0.010850694444444444,8.22482638888889,0)" xlink:href="#K"/><use transform="matrix(0.010850694444444444,0,0,0.010850694444444444,16.590711805555557,0)" xlink:href="#V"/><use transform="matrix(0.010850694444444444,0,0,0.010850694444444444,29.730902777777775,0)" xlink:href="#U"/><use transform="matrix(0.010850694444444444,0,0,0.010850694444444444,41.46050347222222,0)" xlink:href="#P"/><use transform="matrix(0.010850694444444444,0,0,0.010850694444444444,48.73046875,0)" xlink:href="#K"/><use transform="matrix(0.010850694444444444,0,0,0.010850694444444444,57.096354166666664,0)" xlink:href="#J"/><use transform="matrix(0.010850694444444444,0,0,0.010850694444444444,69.57465277777777,0)" xlink:href="#P"/><use transform="matrix(0.010850694444444444,0,0,0.010850694444444444,76.62760416666666,0)" xlink:href="#I"/><use transform="matrix(0.010850694444444444,0,0,0.010850694444444444,89.58333333333333,0)" xlink:href="#at"/></g></defs></g></svg>