<svg xmlns="http://www.w3.org/2000/svg" xmlns:xlink="http://www.w3.org/1999/xlink" xmlns:lucid="lucid" width="2072.84" height="630.45"><g transform="translate(344.08730198760617 99.22666761275991)" lucid:page-tab-id="0_0"><path d="M-500-500h2500v1500H-500z" fill="#fff"/><path d="M-341.6 193L21 194.2l.08-25.9 46.47 51.98-46.82 51.67.1-25.92-362.6-1.2z" stroke="#000" stroke-width="2" fill="#9391ff"/><path d="M-233.07 56.44a6 6 0 0 1 6-6H-46a6 6 0 0 1 6 6v93.03a6 6 0 0 1-6 6h-181.07a6 6 0 0 1-6-6z" fill="none"/><use xlink:href="#a" transform="matrix(1,0,0,1,-233.0741295881288,50.44201792429533) translate(12.218098958333343 28.818142361111114)"/><use xlink:href="#b" transform="matrix(1,0,0,1,-233.0741295881288,50.44201792429533) translate(79.29709201388889 28.818142361111114)"/><use xlink:href="#c" transform="matrix(1,0,0,1,-233.0741295881288,50.44201792429533) translate(142.56749131944443 28.818142361111114)"/><use xlink:href="#d" transform="matrix(1,0,0,1,-233.0741295881288,50.44201792429533) translate(7.742187500000014 61.083767361111114)"/><use xlink:href="#e" transform="matrix(1,0,0,1,-233.0741295881288,50.44201792429533) translate(61.88715277777779 61.083767361111114)"/><use xlink:href="#f" transform="matrix(1,0,0,1,-233.0741295881288,50.44201792429533) translate(34.59765625000001 93.34939236111111)"/><use xlink:href="#g" transform="matrix(1,0,0,1,-233.0741295881288,50.44201792429533) translate(84.82552083333334 93.34939236111111)"/><use xlink:href="#h" transform="matrix(1,0,0,1,-233.0741295881288,50.44201792429533) translate(149.82118055555554 93.34939236111111)"/><path d="M-341.54 327l362.48 1.22.08-25.93 46.5 52L20.67 406l.1-25.92-362.48-1.22z" stroke="#000" stroke-width="2" fill="#6db1ff"/><path d="M960.34 276.95a6 6 0 0 1 6-6h248a6 6 0 0 1 6 6v87.82a6 6 0 0 1-6 6h-248a6 6 0 0 1-6-6z" fill="none"/><use xlink:href="#i" transform="matrix(1,0,0,1,960.3388462655835,270.9534328840508) translate(6.063368055555571 21.52777777777778)"/><use xlink:href="#j" transform="matrix(1,0,0,1,960.3388462655835,270.9534328840508) translate(92.54340277777777 21.52777777777778)"/><use xlink:href="#k" transform="matrix(1,0,0,1,960.3388462655835,270.9534328840508) translate(4.3869357638889 53.79340277777778)"/><use xlink:href="#l" transform="matrix(1,0,0,1,960.3388462655835,270.9534328840508) translate(105.7541232638889 53.79340277777778)"/><use xlink:href="#m" transform="matrix(1,0,0,1,960.3388462655835,270.9534328840508) translate(151.21853298611114 53.79340277777778)"/><use xlink:href="#n" transform="matrix(1,0,0,1,960.3388462655835,270.9534328840508) translate(235.23546006944446 53.79340277777778)"/><use xlink:href="#o" transform="matrix(1,0,0,1,960.3388462655835,270.9534328840508) translate(8.727213541666686 86.05902777777777)"/><use xlink:href="#p" transform="matrix(1,0,0,1,960.3388462655835,270.9534328840508) translate(72.82226562500001 86.05902777777777)"/><use xlink:href="#q" transform="matrix(1,0,0,1,960.3388462655835,270.9534328840508) translate(129.34353298611111 86.05902777777777)"/><use xlink:href="#r" transform="matrix(1,0,0,1,960.3388462655835,270.9534328840508) translate(184.26974826388889 86.05902777777777)"/><use xlink:href="#l" transform="matrix(1,0,0,1,960.3388462655835,270.9534328840508) translate(22.599826388888914 118.32465277777777)"/><use xlink:href="#s" transform="matrix(1,0,0,1,960.3388462655835,270.9534328840508) translate(68.06423611111113 118.32465277777777)"/><use xlink:href="#t" transform="matrix(1,0,0,1,960.3388462655835,270.9534328840508) translate(149.19487847222223 118.32465277777777)"/><path d="M-343.24-16.73v5.18m0 5.17V3.97m0 5.18V19.5m0 5.17v10.35m0 5.17v10.34m0 5.18v10.35m0 5.17V81.6m0 5.17V97.1m0 5.2v10.34m0 5.17v10.36m0 5.18v10.35m0 5.16v5.18a.35.35 0 0 0 .35.35.35.35 0 0 1 .36.34v5.17m0 5.2v10.34m0 5.17v10.36m0 5.17v10.35m0 5.18V222m0 5.18v10.35m0 5.18v10.36m0 5.17v10.35m0 5.17v10.35m0 5.18v10.35m0 5.17v10.35m0 5.18v5.17" stroke="#3a414a" fill="none"/><path d="M-342.76-16.7h-.95v-.53h.94zM-342.06 326h-.48v3h-.47v-3.5h.94z" stroke="#3a414a" stroke-width=".05" fill="#3a414a"/><path d="M1723.2-16.73v5.02m0 5V3.32m0 5.02v10.02m0 5V33.4m0 5v10.03m0 5.02v10.02m0 5v10.04m0 5.02v10.03m0 5v10.03m0 5.02v10.02m0 5v10.04m0 5v10.03m0 5v10.03m0 5v10.04m0 5v10.04m0 5.02v10.02m0 5.02v10.02m0 5v10.04m0 5v10.03m0 5.02V274m0 5v10.03m0 5v10.04m0 5v10.03m0 5.02v10.02m0 5v10.04m0 5v10.03m0 5.03v10.02m0 5v10.04m0 5v10.03m0 5v10.03m0 5.02v10.02m0 5v10.04m0 5v10.04m0 5v5.02" stroke="#3a414a" fill="none"/><path d="M1723.67-16.7h-.95v-.53h.95z" stroke="#3a414a" stroke-width=".05" fill="#3a414a"/><path d="M1723.2 479.5v.5" stroke="#3a414a" fill="none"/><path d="M-285.2 407.13a6 6 0 0 1 6-6h248a6 6 0 0 1 6 6v118.1a6 6 0 0 1-6 6h-248a6 6 0 0 1-6-6z" fill="none"/><use xlink:href="#u" transform="matrix(1,0,0,1,-285.19562843300133,401.13039959715695) translate(18.557942708333343 25.185329861111114)"/><use xlink:href="#v" transform="matrix(1,0,0,1,-285.19562843300133,401.13039959715695) translate(119.53450520833334 25.185329861111114)"/><use xlink:href="#l" transform="matrix(1,0,0,1,-285.19562843300133,401.13039959715695) translate(8.2660590277778 57.450954861111114)"/><use xlink:href="#w" transform="matrix(1,0,0,1,-285.19562843300133,401.13039959715695) translate(53.730468750000014 57.450954861111114)"/><use xlink:href="#g" transform="matrix(1,0,0,1,-285.19562843300133,401.13039959715695) translate(93.83463541666669 57.450954861111114)"/><use xlink:href="#x" transform="matrix(1,0,0,1,-285.19562843300133,401.13039959715695) translate(158.83029513888889 57.450954861111114)"/><use xlink:href="#y" transform="matrix(1,0,0,1,-285.19562843300133,401.13039959715695) translate(173.67404513888889 57.450954861111114)"/><use xlink:href="#z" transform="matrix(1,0,0,1,-285.19562843300133,401.13039959715695) translate(200.30164930555554 57.450954861111114)"/><use xlink:href="#A" transform="matrix(1,0,0,1,-285.19562843300133,401.13039959715695) translate(33.64583333333334 89.71657986111111)"/><use xlink:href="#B" transform="matrix(1,0,0,1,-285.19562843300133,401.13039959715695) translate(73.63064236111111 89.71657986111111)"/><use xlink:href="#m" transform="matrix(1,0,0,1,-285.19562843300133,401.13039959715695) translate(103.12282986111111 89.71657986111111)"/><use xlink:href="#c" transform="matrix(1,0,0,1,-285.19562843300133,401.13039959715695) translate(187.13975694444443 89.71657986111111)"/><use xlink:href="#C" transform="matrix(1,0,0,1,-285.19562843300133,401.13039959715695) translate(77.22764756944446 121.98220486111111)"/><path d="M567.1 86a6 6 0 0 1 6-6h204.48a6 6 0 0 1 6 6v68a6 6 0 0 1-6 6H573.1a6 6 0 0 1-6-6z" fill="none"/><g><use xlink:href="#D" transform="matrix(1,0,0,1,567.1027961642379,80) translate(19.920355902777786 21.52777777777778)"/><use xlink:href="#E" transform="matrix(1,0,0,1,567.1027961642379,80) translate(93.607421875 21.52777777777778)"/><use xlink:href="#F" transform="matrix(1,0,0,1,567.1027961642379,80) translate(126.60438368055556 21.52777777777778)"/><use xlink:href="#G" transform="matrix(1,0,0,1,567.1027961642379,80) translate(159.3083767361111 21.52777777777778)"/><use xlink:href="#H" transform="matrix(1,0,0,1,567.1027961642379,80) translate(24.50477430555557 53.79340277777778)"/><use xlink:href="#I" transform="matrix(1,0,0,1,567.1027961642379,80) translate(76.69661458333334 53.79340277777778)"/><use xlink:href="#J" transform="matrix(1,0,0,1,567.1027961642379,80) translate(184.48741319444443 53.79340277777778)"/><use xlink:href="#K" transform="matrix(1,0,0,1,567.1027961642379,80) translate(66.04665798611111 86.05902777777777)"/></g><path d="M1424.8 97.6a6 6 0 0 1 6-6h148a6 6 0 0 1 6 6v87.98a6 6 0 0 1-6 6h-148a6 6 0 0 1-6-6z" fill="none"/><g><use xlink:href="#L" transform="matrix(1,0,0,1,1424.809981360178,91.5906830057627) translate(33.80316840277778 25.818142361111114)"/><use xlink:href="#M" transform="matrix(1,0,0,1,1424.809981360178,91.5906830057627) translate(22.58355034722223 58.083767361111114)"/><use xlink:href="#n" transform="matrix(1,0,0,1,1424.809981360178,91.5906830057627) translate(117.0388454861111 58.083767361111114)"/><use xlink:href="#N" transform="matrix(1,0,0,1,1424.809981360178,91.5906830057627) translate(33.47764756944444 90.34939236111111)"/><use xlink:href="#O" transform="matrix(1,0,0,1,1424.809981360178,91.5906830057627) translate(89.67339409722223 90.34939236111111)"/></g><path d="M-343.1-98.23h415v80h-415z" stroke="#000" stroke-width="2" fill="#e5e5e5"/><g><use xlink:href="#P" transform="matrix(1,0,0,1,-338.08730198760617,-93.22666761275991) translate(152.12890625 49.6875)"/><use xlink:href="#Q" transform="matrix(1,0,0,1,-338.08730198760617,-93.22666761275991) translate(236.6015625 49.6875)"/></g><path d="M67.75-98.23h415v80h-415z" stroke="#000" stroke-width="2" fill="#e5e5e5"/><g><use xlink:href="#P" transform="matrix(1,0,0,1,72.7539686542728,-93.22666761275991) translate(148.06640625 49.6875)"/><use xlink:href="#R" transform="matrix(1,0,0,1,72.7539686542728,-93.22666761275991) translate(232.5390625 49.6875)"/></g><path d="M482.75-98.23h415v80h-415z" stroke="#000" stroke-width="2" fill="#e5e5e5"/><g><use xlink:href="#P" transform="matrix(1,0,0,1,487.7539686542728,-93.22666761275991) translate(147.91015625 49.6875)"/><use xlink:href="#S" transform="matrix(1,0,0,1,487.7539686542728,-93.22666761275991) translate(232.3828125 49.6875)"/></g><g><path d="M483.02 197.5l362.6 1.23.08-25.92 46.48 52-46.82 51.67.08-25.9-362.6-1.23z" stroke="#000" stroke-width="2" fill="#54c45e"/></g><g><path d="M898.02 197.5l362.6 1.23.08-25.92 46.48 52-46.82 51.67.08-25.9-362.6-1.23z" stroke="#000" stroke-width="2" fill="#fcce14"/></g><g><path d="M1313.02 197.5l365.3 1.23.1-25.92 46.46 52-46.82 51.67.08-25.9-365.3-1.24z" stroke="#000" stroke-width="2" fill="#e81313"/></g><path d="M897.75-98.23h415v80h-415z" stroke="#000" stroke-width="2" fill="#e5e5e5"/><g><use xlink:href="#P" transform="matrix(1,0,0,1,902.7539686542727,-93.22666761275991) translate(147.34375 49.6875)"/><use xlink:href="#T" transform="matrix(1,0,0,1,902.7539686542727,-93.22666761275991) translate(231.81640625 49.6875)"/></g><path d="M1312.75-98.23h415v80h-415z" stroke="#000" stroke-width="2" fill="#e5e5e5"/><g><use xlink:href="#P" transform="matrix(1,0,0,1,1317.7539686542727,-93.22666761275991) translate(148.10546875 49.6875)"/><use xlink:href="#U" transform="matrix(1,0,0,1,1317.7539686542727,-93.22666761275991) translate(232.578125 49.6875)"/></g><g><path d="M70.72 193l362.6 1.2.1-25.9 46.46 51.98-46.82 51.67.1-25.92-362.62-1.2z" stroke="#000" stroke-width="2" fill="#9391ff"/></g><path d="M179.25 56.44a6 6 0 0 1 6-6h181.08a6 6 0 0 1 6 6v93.03a6 6 0 0 1-6 6H185.25a6 6 0 0 1-6-6z" fill="none"/><g><use xlink:href="#a" transform="matrix(1,0,0,1,179.2534627774956,50.44201792429533) translate(12.218098958333343 28.818142361111114)"/><use xlink:href="#b" transform="matrix(1,0,0,1,179.2534627774956,50.44201792429533) translate(79.29709201388889 28.818142361111114)"/><use xlink:href="#c" transform="matrix(1,0,0,1,179.2534627774956,50.44201792429533) translate(142.56749131944443 28.818142361111114)"/><use xlink:href="#d" transform="matrix(1,0,0,1,179.2534627774956,50.44201792429533) translate(7.742187500000014 61.083767361111114)"/><use xlink:href="#e" transform="matrix(1,0,0,1,179.2534627774956,50.44201792429533) translate(61.88715277777779 61.083767361111114)"/><use xlink:href="#f" transform="matrix(1,0,0,1,179.2534627774956,50.44201792429533) translate(32.38953993055556 93.34939236111111)"/><use xlink:href="#g" transform="matrix(1,0,0,1,179.2534627774956,50.44201792429533) translate(82.61740451388889 93.34939236111111)"/><use xlink:href="#V" transform="matrix(1,0,0,1,179.2534627774956,50.44201792429533) translate(147.6130642361111 93.34939236111111)"/></g><g><path d="M70.8 327l362.46 1.22.1-25.93 46.5 52L433 406l.1-25.92-362.5-1.22z" stroke="#000" stroke-width="2" fill="#6db1ff"/></g><path d="M127.13 407.13a6 6 0 0 1 6-6h248a6 6 0 0 1 6 6v118.1a6 6 0 0 1-6 6h-248a6 6 0 0 1-6-6z" fill="none"/><g><use xlink:href="#u" transform="matrix(1,0,0,1,127.13196393262314,401.13039959715707) translate(18.557942708333343 25.185329861111114)"/><use xlink:href="#v" transform="matrix(1,0,0,1,127.13196393262314,401.13039959715707) translate(119.53450520833334 25.185329861111114)"/><use xlink:href="#l" transform="matrix(1,0,0,1,127.13196393262314,401.13039959715707) translate(5.5642361111111285 57.450954861111114)"/><use xlink:href="#w" transform="matrix(1,0,0,1,127.13196393262314,401.13039959715707) translate(51.02864583333334 57.450954861111114)"/><use xlink:href="#g" transform="matrix(1,0,0,1,127.13196393262314,401.13039959715707) translate(91.13281250000001 57.450954861111114)"/><use xlink:href="#W" transform="matrix(1,0,0,1,127.13196393262314,401.13039959715707) translate(156.12847222222223 57.450954861111114)"/><use xlink:href="#X" transform="matrix(1,0,0,1,127.13196393262314,401.13039959715707) translate(176.37586805555554 57.450954861111114)"/><use xlink:href="#z" transform="matrix(1,0,0,1,127.13196393262314,401.13039959715707) translate(203.00347222222223 57.450954861111114)"/><use xlink:href="#A" transform="matrix(1,0,0,1,127.13196393262314,401.13039959715707) translate(33.64583333333334 89.71657986111111)"/><use xlink:href="#B" transform="matrix(1,0,0,1,127.13196393262314,401.13039959715707) translate(73.63064236111111 89.71657986111111)"/><use xlink:href="#m" transform="matrix(1,0,0,1,127.13196393262314,401.13039959715707) translate(103.12282986111111 89.71657986111111)"/><use xlink:href="#c" transform="matrix(1,0,0,1,127.13196393262314,401.13039959715707) translate(187.13975694444443 89.71657986111111)"/><use xlink:href="#C" transform="matrix(1,0,0,1,127.13196393262314,401.13039959715707) translate(77.22764756944446 121.98220486111111)"/></g><defs><path d="M657 26c-323 0-524-166-541-416h195c15 169 171 246 346 246 202 0 356-106 356-265 5-203-294-238-475-293-239-73-380-191-380-389 0-252 224-419 512-419 294 0 499 171 508 396H992c-17-145-151-228-328-228-193 0-321 102-321 242 0 156 175 211 284 241l149 41c160 44 422 134 422 412 0 244-197 432-541 432" id="Y"/><path d="M338-670V0H158v-1490h180v566c73-149 190-208 336-208 226 0 379 139 379 422V0H872v-695c0-172-96-275-252-275-161 0-282 109-282 300" id="Z"/><path d="M471 26C259 26 90-98 90-318c0-256 228-303 435-329 202-27 287-16 287-108 0-139-79-219-234-219-161 0-248 86-283 164l-173-57c86-203 278-265 451-265 150 0 419 46 419 395V0H815v-152h-12C765-73 660 26 471 26zm31-159c199 0 310-134 310-271v-155c-30 35-226 55-295 64-131 17-246 59-246 186 0 116 97 176 231 176" id="aa"/><path d="M158 0v-1118h174v172h12c41-113 157-188 290-188 26 0 70 2 91 3v181c-11-2-60-10-108-10-161 0-279 109-279 260V0H158" id="ab"/><path d="M628 24c-324 0-524-230-524-574 0-343 198-582 503-582 237 0 487 146 487 559v75H286c9 234 145 362 343 362 132 0 231-58 273-172l174 48C1024-91 857 24 628 24zM287-650h624c-17-190-120-322-304-322-192 0-309 151-320 322" id="ac"/><g id="a"><use transform="matrix(0.010850694444444444,0,0,0.010850694444444444,0,0)" xlink:href="#Y"/><use transform="matrix(0.010850694444444444,0,0,0.010850694444444444,14.2578125,0)" xlink:href="#Z"/><use transform="matrix(0.010850694444444444,0,0,0.010850694444444444,27.39800347222222,0)" xlink:href="#aa"/><use transform="matrix(0.010850694444444444,0,0,0.010850694444444444,39.87630208333333,0)" xlink:href="#ab"/><use transform="matrix(0.010850694444444444,0,0,0.010850694444444444,47.87326388888888,0)" xlink:href="#ac"/></g><path d="M1096 418H916v-591h-14C865-111 790 24 577 24c-279 0-473-224-473-580 0-354 195-576 474-576 218 0 287 134 324 193h20v-179h174V418zM604-137c203 0 314-172 314-421 0-247-108-413-314-413-212 0-317 181-317 413 0 235 108 421 317 421" id="ad"/><path d="M537 14c-226 0-379-139-379-422v-710h180v695c0 172 97 275 253 275 160 0 281-109 281-300v-670h181V0H879v-209C806-46 684 14 537 14" id="ae"/><path d="M158 0v-1118h180V0H158zm91-1301c-68 0-125-53-125-119s57-119 125-119c69 0 126 53 126 119s-57 119-126 119" id="af"/><path d="M613 24c-304 0-509-231-509-576 0-350 205-580 509-580 216 0 392 114 453 309l-173 49c-33-115-133-197-280-197-223 0-326 196-326 419 0 220 103 415 326 415 150 0 252-85 285-206l172 49C1010-95 832 24 613 24" id="ag"/><path d="M158 0v-1490h180v865h22l478-493h223L593-638 1096 0H865L456-523 338-412V0H158" id="ah"/><g id="b"><use transform="matrix(0.010850694444444444,0,0,0.010850694444444444,0,0)" xlink:href="#ad"/><use transform="matrix(0.010850694444444444,0,0,0.010850694444444444,13.606770833333332,0)" xlink:href="#ae"/><use transform="matrix(0.010850694444444444,0,0,0.010850694444444444,26.746961805555554,0)" xlink:href="#af"/><use transform="matrix(0.010850694444444444,0,0,0.010850694444444444,32.12890625,0)" xlink:href="#ag"/><use transform="matrix(0.010850694444444444,0,0,0.010850694444444444,44.82421875,0)" xlink:href="#ah"/></g><path d="M338-670V0H158v-1118h173l1 207c72-158 192-221 342-221 226 0 378 139 378 422V0H872v-695c0-172-96-275-252-275-161 0-282 109-282 300" id="ai"/><path d="M577 24c-279 0-473-224-473-580 0-354 195-576 474-576 218 0 287 134 324 193h14v-551h180V0H922v-173h-20C865-111 790 24 577 24zm27-161c203 0 314-172 314-421 0-247-108-413-314-413-212 0-317 181-317 413 0 235 108 421 317 421" id="aj"/><g id="c"><use transform="matrix(0.010850694444444444,0,0,0.010850694444444444,0,0)" xlink:href="#aa"/><use transform="matrix(0.010850694444444444,0,0,0.010850694444444444,12.47829861111111,0)" xlink:href="#ai"/><use transform="matrix(0.010850694444444444,0,0,0.010850694444444444,25.60763888888889,0)" xlink:href="#aj"/></g><path d="M598-1118v154H368v674c0 100 37 144 132 144 23 0 62-6 92-12L629-6c-37 13-88 20-134 20-193 0-307-107-307-290v-688H20v-154h168v-266h180v266h230" id="ak"/><path d="M140 405l46-156c120 36 205 19 263-150l32-93L54-1118h197c107 313 237 620 324 950 87-331 219-637 326-950h196L606 167c-68 178-176 259-334 259-64 0-113-12-132-21" id="al"/><g id="d"><use transform="matrix(0.010850694444444444,0,0,0.010850694444444444,0,0)" xlink:href="#aj"/><use transform="matrix(0.010850694444444444,0,0,0.010850694444444444,13.606770833333332,0)" xlink:href="#af"/><use transform="matrix(0.010850694444444444,0,0,0.010850694444444444,18.98871527777778,0)" xlink:href="#ab"/><use transform="matrix(0.010850694444444444,0,0,0.010850694444444444,27.701822916666664,0)" xlink:href="#ak"/><use transform="matrix(0.010850694444444444,0,0,0.010850694444444444,35.40581597222222,0)" xlink:href="#al"/></g><path d="M158 418v-1536h174v179h20c37-59 106-193 324-193 279 0 474 222 474 576 0 356-194 580-473 580-213 0-288-135-325-197h-14v591H158zm492-555c209 0 317-186 317-421 0-232-105-413-317-413-206 0-314 166-314 413 0 249 111 421 314 421" id="am"/><path d="M613 24c-304 0-509-231-509-576 0-350 205-580 509-580 305 0 511 230 511 580 0 345-206 576-511 576zm0-161c226 0 329-195 329-415 0-222-103-419-329-419-223 0-326 196-326 419 0 220 103 415 326 415" id="an"/><path d="M481 0L54-1118h197c107 314 236 620 325 951 87-331 217-637 324-951h197L670 0H481" id="ao"/><g id="e"><use transform="matrix(0.010850694444444444,0,0,0.010850694444444444,0,0)" xlink:href="#am"/><use transform="matrix(0.010850694444444444,0,0,0.010850694444444444,13.606770833333332,0)" xlink:href="#ab"/><use transform="matrix(0.010850694444444444,0,0,0.010850694444444444,21.603732638888886,0)" xlink:href="#an"/><use transform="matrix(0.010850694444444444,0,0,0.010850694444444444,34.494357638888886,0)" xlink:href="#ao"/><use transform="matrix(0.010850694444444444,0,0,0.010850694444444444,46.549479166666664,0)" xlink:href="#an"/><use transform="matrix(0.010850694444444444,0,0,0.010850694444444444,59.87413194444444,0)" xlink:href="#ag"/><use transform="matrix(0.010850694444444444,0,0,0.010850694444444444,72.78645833333333,0)" xlink:href="#aa"/><use transform="matrix(0.010850694444444444,0,0,0.010850694444444444,85.26475694444444,0)" xlink:href="#ak"/><use transform="matrix(0.010850694444444444,0,0,0.010850694444444444,92.53472222222221,0)" xlink:href="#af"/><use transform="matrix(0.010850694444444444,0,0,0.010850694444444444,97.91666666666666,0)" xlink:href="#an"/><use transform="matrix(0.010850694444444444,0,0,0.010850694444444444,111.24131944444441,0)" xlink:href="#ai"/></g><path d="M409 0L70-1118h191c89 329 165 560 243 925 75-353 154-601 240-925h192c85 325 161 564 235 922 77-354 157-598 244-922h191L1267 0h-179c-86-307-176-590-250-913C763-588 675-308 588 0H409" id="ap"/><g id="f"><use transform="matrix(0.010850694444444444,0,0,0.010850694444444444,0,0)" xlink:href="#ap"/><use transform="matrix(0.010850694444444444,0,0,0.010850694444444444,18.18576388888889,0)" xlink:href="#af"/><use transform="matrix(0.010850694444444444,0,0,0.010850694444444444,23.567708333333336,0)" xlink:href="#ak"/><use transform="matrix(0.010850694444444444,0,0,0.010850694444444444,30.837673611111114,0)" xlink:href="#Z"/></g><path d="M75-1237v-253h1217v253H837V0H531v-1237H75" id="aq"/><path d="M633 22C291 22 81-200 81-553c0-345 210-579 537-579 292 0 525 185 525 567v84H378c7 183 109 277 260 277 105 0 184-46 216-132l272 51C1071-99 893 22 633 22zM380-669h474c-15-146-94-237-233-237-143 0-229 99-241 237" id="ar"/><path d="M440 22C227 22 68-92 68-313c0-250 202-322 422-343 195-21 271-24 271-105 0-95-63-149-175-149-116 0-187 57-211 129l-275-46c57-194 237-305 487-305 240 0 474 108 474 379V0H777v-155h-10C713-51 605 22 440 22zm85-211c140 0 238-93 238-211v-121c-37 26-156 42-222 51-111 16-185 59-185 149 0 87 70 132 169 132" id="as"/><path d="M128 0v-1118h278l12 217c60-163 185-234 319-234 143 0 236 81 288 251 63-172 205-251 359-251 205 0 357 138 357 381V0h-301v-697c0-126-76-187-177-187-114 0-184 79-184 196V0H789v-705c0-109-72-179-174-179-106 0-187 74-187 208V0H128" id="at"/><g id="g"><use transform="matrix(0.010850694444444444,0,0,0.010850694444444444,0,0)" xlink:href="#aq"/><use transform="matrix(0.010850694444444444,0,0,0.010850694444444444,13.096788194444445,0)" xlink:href="#ar"/><use transform="matrix(0.010850694444444444,0,0,0.010850694444444444,26.55164930555556,0)" xlink:href="#as"/><use transform="matrix(0.010850694444444444,0,0,0.010850694444444444,39.453125,0)" xlink:href="#at"/></g><path d="M749-1490V0H444v-1221h-10L93-980v-279l329-231h327" id="au"/><use transform="matrix(0.010850694444444444,0,0,0.010850694444444444,0,0)" xlink:href="#au" id="h"/><path d="M180 0v-1490h510c348 0 508 209 508 474 0 266-160 477-507 477H370V0H180zm190-706h312c236 0 327-133 327-310 0-176-91-307-329-307H370v617" id="av"/><path d="M538 24C308 24 148-78 108-271l171-41c32 123 123 178 257 178 156 0 256-77 256-169 0-77-54-128-164-154l-186-44c-203-48-300-148-300-305 0-192 176-326 414-326 230 0 351 112 402 269l-163 42c-31-80-94-158-238-158-133 0-233 69-233 162 0 83 57 129 188 160l169 40c203 48 298 149 298 302 0 196-179 339-441 339" id="aw"/><g id="i"><use transform="matrix(0.010850694444444444,0,0,0.010850694444444444,0,0)" xlink:href="#av"/><use transform="matrix(0.010850694444444444,0,0,0.010850694444444444,14.192708333333332,0)" xlink:href="#ab"/><use transform="matrix(0.010850694444444444,0,0,0.010850694444444444,22.189670138888886,0)" xlink:href="#ac"/><use transform="matrix(0.010850694444444444,0,0,0.010850694444444444,35.14539930555555,0)" xlink:href="#aw"/><use transform="matrix(0.010850694444444444,0,0,0.010850694444444444,46.874999999999986,0)" xlink:href="#ac"/><use transform="matrix(0.010850694444444444,0,0,0.010850694444444444,59.83072916666666,0)" xlink:href="#ai"/><use transform="matrix(0.010850694444444444,0,0,0.010850694444444444,72.96006944444443,0)" xlink:href="#ak"/></g><path d="M158 0v-1118h175l1 205c55-151 181-225 313-225 147 0 245 90 285 228 53-141 190-228 352-228 194 0 352 125 352 384V0h-181v-749c0-161-105-225-225-225-151 0-243 103-243 244V0H807v-767c0-124-93-207-219-207-131 0-250 92-250 270V0H158" id="ax"/><g id="j"><use transform="matrix(0.010850694444444444,0,0,0.010850694444444444,0,0)" xlink:href="#ag"/><use transform="matrix(0.010850694444444444,0,0,0.010850694444444444,12.6953125,0)" xlink:href="#an"/><use transform="matrix(0.010850694444444444,0,0,0.010850694444444444,26.01996527777778,0)" xlink:href="#ax"/><use transform="matrix(0.010850694444444444,0,0,0.010850694444444444,45.48611111111111,0)" xlink:href="#am"/><use transform="matrix(0.010850694444444444,0,0,0.010850694444444444,59.09288194444444,0)" xlink:href="#ab"/><use transform="matrix(0.010850694444444444,0,0,0.010850694444444444,67.08984375,0)" xlink:href="#ac"/><use transform="matrix(0.010850694444444444,0,0,0.010850694444444444,80.04557291666667,0)" xlink:href="#Z"/><use transform="matrix(0.010850694444444444,0,0,0.010850694444444444,93.18576388888889,0)" xlink:href="#ac"/><use transform="matrix(0.010850694444444444,0,0,0.010850694444444444,106.14149305555556,0)" xlink:href="#ai"/><use transform="matrix(0.010850694444444444,0,0,0.010850694444444444,119.27083333333333,0)" xlink:href="#aw"/><use transform="matrix(0.010850694444444444,0,0,0.010850694444444444,131.00043402777777,0)" xlink:href="#af"/><use transform="matrix(0.010850694444444444,0,0,0.010850694444444444,136.38237847222223,0)" xlink:href="#ao"/><use transform="matrix(0.010850694444444444,0,0,0.010850694444444444,148.4375,0)" xlink:href="#ac"/></g><path d="M338-1490V0H158v-1490h180" id="ay"/><path d="M611 442c-248 0-391-105-460-228l146-94c47 65 117 165 314 165 178 0 307-82 307-266v-224h-17C863-141 792-18 576-18c-268 0-472-195-472-546 0-346 197-568 476-568 216 0 288 133 326 193h17v-179h175V29c0 289-215 413-487 413zm-5-620c203 0 314-146 314-390 0-237-108-403-314-403-213 0-319 180-319 403 0 230 109 390 319 390" id="az"/><g id="k"><use transform="matrix(0.010850694444444444,0,0,0.010850694444444444,0,0)" xlink:href="#aj"/><use transform="matrix(0.010850694444444444,0,0,0.010850694444444444,13.606770833333332,0)" xlink:href="#af"/><use transform="matrix(0.010850694444444444,0,0,0.010850694444444444,18.98871527777778,0)" xlink:href="#ay"/><use transform="matrix(0.010850694444444444,0,0,0.010850694444444444,24.37065972222222,0)" xlink:href="#af"/><use transform="matrix(0.010850694444444444,0,0,0.010850694444444444,29.752604166666664,0)" xlink:href="#az"/><use transform="matrix(0.010850694444444444,0,0,0.010850694444444444,43.381076388888886,0)" xlink:href="#ac"/><use transform="matrix(0.010850694444444444,0,0,0.010850694444444444,56.33680555555555,0)" xlink:href="#ai"/><use transform="matrix(0.010850694444444444,0,0,0.010850694444444444,69.46614583333333,0)" xlink:href="#ag"/><use transform="matrix(0.010850694444444444,0,0,0.010850694444444444,82.16145833333333,0)" xlink:href="#ac"/></g><g id="l"><use transform="matrix(0.010850694444444444,0,0,0.010850694444444444,0,0)" xlink:href="#aa"/><use transform="matrix(0.010850694444444444,0,0,0.010850694444444444,12.47829861111111,0)" xlink:href="#ai"/><use transform="matrix(0.010850694444444444,0,0,0.010850694444444444,25.60763888888889,0)" xlink:href="#aj"/></g><g id="m"><use transform="matrix(0.010850694444444444,0,0,0.010850694444444444,0,0)" xlink:href="#an"/><use transform="matrix(0.010850694444444444,0,0,0.010850694444444444,13.324652777777777,0)" xlink:href="#am"/><use transform="matrix(0.010850694444444444,0,0,0.010850694444444444,26.931423611111104,0)" xlink:href="#ak"/><use transform="matrix(0.010850694444444444,0,0,0.010850694444444444,34.201388888888886,0)" xlink:href="#af"/><use transform="matrix(0.010850694444444444,0,0,0.010850694444444444,39.58333333333333,0)" xlink:href="#an"/><use transform="matrix(0.010850694444444444,0,0,0.010850694444444444,52.90798611111111,0)" xlink:href="#ai"/><use transform="matrix(0.010850694444444444,0,0,0.010850694444444444,66.03732638888889,0)" xlink:href="#aw"/></g><g id="n"><use transform="matrix(0.010850694444444444,0,0,0.010850694444444444,0,0)" xlink:href="#ak"/><use transform="matrix(0.010850694444444444,0,0,0.010850694444444444,7.052951388888888,0)" xlink:href="#an"/></g><path d="M428-1490V0H128v-1490h300" id="aA"/><path d="M537 19C279 19 81-185 81-557c0-382 206-575 454-575 190 0 278 113 318 202h10v-560h300V0H868v-179h-15C812-89 719 19 537 19zm92-241c153 0 240-134 240-336 0-203-86-334-240-334-158 0-240 138-240 334 0 197 84 336 240 336" id="aB"/><path d="M572 22C302 22 117-98 78-306l279-48c29 105 101 156 224 156 114 0 185-48 185-115 0-118-228-130-337-155-215-49-322-150-322-317 0-215 187-347 470-347 265 0 424 116 466 298l-266 47c-24-76-87-130-196-130-98 0-174 46-174 113 0 56 38 95 144 117l201 40c216 44 320 143 320 302 0 220-207 367-500 367" id="aC"/><g id="o"><use transform="matrix(0.010850694444444444,0,0,0.010850694444444444,0,0)" xlink:href="#aA"/><use transform="matrix(0.010850694444444444,0,0,0.010850694444444444,6.022135416666666,0)" xlink:href="#ar"/><use transform="matrix(0.010850694444444444,0,0,0.010850694444444444,19.47699652777778,0)" xlink:href="#as"/><use transform="matrix(0.010850694444444444,0,0,0.010850694444444444,32.37847222222222,0)" xlink:href="#aB"/><use transform="matrix(0.010850694444444444,0,0,0.010850694444444444,46.38671875,0)" xlink:href="#aC"/></g><path d="M750-1118v229H516V0H217v-889H20v-229h197v-86c0-238 156-356 363-356 94 0 178 20 215 31l-54 226c-25-7-61-15-100-15-123-3-131 84-125 200h234" id="aD"/><path d="M128 0v-1118h290v195h12c54-169 184-238 367-200v268c-27-8-86-15-130-15-138 0-239 95-239 234V0H128" id="aE"/><path d="M628 22C291 22 81-210 81-554c0-346 210-578 547-578 336 0 547 232 547 578 0 344-211 576-547 576zm0-236c160 0 242-146 242-341 0-197-82-341-242-341S387-753 387-555c0 195 81 341 241 341" id="aF"/><g id="p"><use transform="matrix(0.010850694444444444,0,0,0.010850694444444444,0,0)" xlink:href="#aD"/><use transform="matrix(0.010850694444444444,0,0,0.010850694444444444,8.843315972222221,0)" xlink:href="#aE"/><use transform="matrix(0.010850694444444444,0,0,0.010850694444444444,17.350260416666664,0)" xlink:href="#aF"/><use transform="matrix(0.010850694444444444,0,0,0.010850694444444444,30.97873263888889,0)" xlink:href="#at"/></g><path d="M754 19C571 19 479-89 437-179h-14V0H128v-1490h300v560h9c41-89 129-202 319-202 248 0 453 193 453 575 0 372-197 576-455 576zm-92-241c156 0 240-139 240-336 0-196-83-334-240-334-154 0-241 131-241 334 0 202 88 336 241 336" id="aG"/><path d="M683-1118v229H474v562c0 71 29 104 102 104 23 0 73-7 95-13l43 225C647 9 580 16 520 16 296 16 174-96 174-301v-588H20v-229h154v-266h300v266h209" id="aH"/><path d="M428-647V0H128v-1490h294v586c65-146 175-228 341-228 232 0 385 159 385 421V0H847v-659c0-139-76-222-202-222-128 0-217 86-217 234" id="aI"/><g id="q"><use transform="matrix(0.010850694444444444,0,0,0.010850694444444444,0,0)" xlink:href="#aG"/><use transform="matrix(0.010850694444444444,0,0,0.010850694444444444,14.008246527777777,0)" xlink:href="#aF"/><use transform="matrix(0.010850694444444444,0,0,0.010850694444444444,27.63671875,0)" xlink:href="#aH"/><use transform="matrix(0.010850694444444444,0,0,0.010850694444444444,35.82899305555556,0)" xlink:href="#aI"/></g><g id="r"><use transform="matrix(0.010850694444444444,0,0,0.010850694444444444,0,0)" xlink:href="#aH"/><use transform="matrix(0.010850694444444444,0,0,0.010850694444444444,7.921006944444444,0)" xlink:href="#ar"/><use transform="matrix(0.010850694444444444,0,0,0.010850694444444444,21.375868055555557,0)" xlink:href="#as"/><use transform="matrix(0.010850694444444444,0,0,0.010850694444444444,34.27734375,0)" xlink:href="#at"/><use transform="matrix(0.010850694444444444,0,0,0.010850694444444444,54.557291666666664,0)" xlink:href="#aC"/></g><path d="M678-1118v154H420V0H240v-964H20v-154h220v-149c0-194 155-293 318-293 85 0 141 18 168 30l-50 154c-19-6-47-17-97-17-111 0-159 58-159 166v109h258" id="aJ"/><path d="M126 0v-134l627-806v-11H146v-167h839v143L376-178v11h629V0H126" id="aK"/><g id="s"><use transform="matrix(0.010850694444444444,0,0,0.010850694444444444,0,0)" xlink:href="#aJ"/><use transform="matrix(0.010850694444444444,0,0,0.010850694444444444,8.22482638888889,0)" xlink:href="#af"/><use transform="matrix(0.010850694444444444,0,0,0.010850694444444444,13.606770833333332,0)" xlink:href="#ai"/><use transform="matrix(0.010850694444444444,0,0,0.010850694444444444,26.73611111111111,0)" xlink:href="#aa"/><use transform="matrix(0.010850694444444444,0,0,0.010850694444444444,39.21440972222222,0)" xlink:href="#ay"/><use transform="matrix(0.010850694444444444,0,0,0.010850694444444444,44.596354166666664,0)" xlink:href="#af"/><use transform="matrix(0.010850694444444444,0,0,0.010850694444444444,49.97829861111111,0)" xlink:href="#aK"/><use transform="matrix(0.010850694444444444,0,0,0.010850694444444444,61.924913194444436,0)" xlink:href="#ac"/></g><g id="t"><use transform="matrix(0.010850694444444444,0,0,0.010850694444444444,0,0)" xlink:href="#aj"/><use transform="matrix(0.010850694444444444,0,0,0.010850694444444444,13.606770833333332,0)" xlink:href="#ac"/><use transform="matrix(0.010850694444444444,0,0,0.010850694444444444,26.5625,0)" xlink:href="#ag"/><use transform="matrix(0.010850694444444444,0,0,0.010850694444444444,39.2578125,0)" xlink:href="#af"/><use transform="matrix(0.010850694444444444,0,0,0.010850694444444444,44.63975694444444,0)" xlink:href="#aw"/><use transform="matrix(0.010850694444444444,0,0,0.010850694444444444,56.369357638888886,0)" xlink:href="#af"/><use transform="matrix(0.010850694444444444,0,0,0.010850694444444444,61.75130208333333,0)" xlink:href="#an"/><use transform="matrix(0.010850694444444444,0,0,0.010850694444444444,75.0759548611111,0)" xlink:href="#ai"/></g><path d="M783 20c-382 0-661-292-661-764 0-473 279-766 661-766 302 0 548 182 601 489h-190c-42-204-217-313-411-313-268 0-476 208-476 590 0 381 209 588 476 588 195 0 369-110 411-313h190c-52 303-296 489-601 489" id="aL"/><g id="u"><use transform="matrix(0.010850694444444444,0,0,0.010850694444444444,0,0)" xlink:href="#aL"/><use transform="matrix(0.010850694444444444,0,0,0.010850694444444444,16.23263888888889,0)" xlink:href="#an"/><use transform="matrix(0.010850694444444444,0,0,0.010850694444444444,29.557291666666664,0)" xlink:href="#ai"/><use transform="matrix(0.010850694444444444,0,0,0.010850694444444444,42.68663194444444,0)" xlink:href="#aw"/><use transform="matrix(0.010850694444444444,0,0,0.010850694444444444,54.416232638888886,0)" xlink:href="#af"/><use transform="matrix(0.010850694444444444,0,0,0.010850694444444444,59.79817708333333,0)" xlink:href="#aj"/><use transform="matrix(0.010850694444444444,0,0,0.010850694444444444,73.40494791666666,0)" xlink:href="#ac"/><use transform="matrix(0.010850694444444444,0,0,0.010850694444444444,86.36067708333333,0)" xlink:href="#ab"/></g><g id="v"><use transform="matrix(0.010850694444444444,0,0,0.010850694444444444,0,0)" xlink:href="#aa"/><use transform="matrix(0.010850694444444444,0,0,0.010850694444444444,12.47829861111111,0)" xlink:href="#ay"/><use transform="matrix(0.010850694444444444,0,0,0.010850694444444444,18.18576388888889,0)" xlink:href="#ak"/><use transform="matrix(0.010850694444444444,0,0,0.010850694444444444,25.23871527777778,0)" xlink:href="#ac"/><use transform="matrix(0.010850694444444444,0,0,0.010850694444444444,38.19444444444444,0)" xlink:href="#ab"/><use transform="matrix(0.010850694444444444,0,0,0.010850694444444444,46.90755208333333,0)" xlink:href="#ai"/><use transform="matrix(0.010850694444444444,0,0,0.010850694444444444,60.03689236111111,0)" xlink:href="#aa"/><use transform="matrix(0.010850694444444444,0,0,0.010850694444444444,72.51519097222221,0)" xlink:href="#ak"/><use transform="matrix(0.010850694444444444,0,0,0.010850694444444444,79.78515624999999,0)" xlink:href="#af"/><use transform="matrix(0.010850694444444444,0,0,0.010850694444444444,85.16710069444443,0)" xlink:href="#ao"/><use transform="matrix(0.010850694444444444,0,0,0.010850694444444444,97.22222222222221,0)" xlink:href="#ac"/><use transform="matrix(0.010850694444444444,0,0,0.010850694444444444,110.17795138888889,0)" xlink:href="#aw"/></g><g id="w"><use transform="matrix(0.010850694444444444,0,0,0.010850694444444444,0,0)" xlink:href="#az"/><use transform="matrix(0.010850694444444444,0,0,0.010850694444444444,13.628472222222221,0)" xlink:href="#ac"/><use transform="matrix(0.010850694444444444,0,0,0.010850694444444444,26.58420138888889,0)" xlink:href="#ak"/></g><use transform="matrix(0.010850694444444444,0,0,0.010850694444444444,0,0)" xlink:href="#au" id="x"/><g id="y"><use transform="matrix(0.010850694444444444,0,0,0.010850694444444444,0,0)" xlink:href="#ak"/><use transform="matrix(0.010850694444444444,0,0,0.010850694444444444,7.052951388888888,0)" xlink:href="#an"/></g><g id="z"><use transform="matrix(0.010850694444444444,0,0,0.010850694444444444,0,0)" xlink:href="#aJ"/><use transform="matrix(0.010850694444444444,0,0,0.010850694444444444,8.22482638888889,0)" xlink:href="#ay"/><use transform="matrix(0.010850694444444444,0,0,0.010850694444444444,13.606770833333332,0)" xlink:href="#ac"/><use transform="matrix(0.010850694444444444,0,0,0.010850694444444444,26.5625,0)" xlink:href="#aw"/><use transform="matrix(0.010850694444444444,0,0,0.010850694444444444,38.29210069444444,0)" xlink:href="#Z"/></g><g id="A"><use transform="matrix(0.010850694444444444,0,0,0.010850694444444444,0,0)" xlink:href="#an"/><use transform="matrix(0.010850694444444444,0,0,0.010850694444444444,13.324652777777777,0)" xlink:href="#ae"/><use transform="matrix(0.010850694444444444,0,0,0.010850694444444444,26.46484375,0)" xlink:href="#ak"/></g><g id="B"><use transform="matrix(0.010850694444444444,0,0,0.010850694444444444,0,0)" xlink:href="#aa"/><use transform="matrix(0.010850694444444444,0,0,0.010850694444444444,12.47829861111111,0)" xlink:href="#ay"/><use transform="matrix(0.010850694444444444,0,0,0.010850694444444444,17.860243055555557,0)" xlink:href="#ay"/></g><path d="M692-1560L212 224H46l480-1784h166" id="aM"/><g id="C"><use transform="matrix(0.010850694444444444,0,0,0.010850694444444444,0,0)" xlink:href="#am"/><use transform="matrix(0.010850694444444444,0,0,0.010850694444444444,13.606770833333332,0)" xlink:href="#ab"/><use transform="matrix(0.010850694444444444,0,0,0.010850694444444444,21.603732638888886,0)" xlink:href="#an"/><use transform="matrix(0.010850694444444444,0,0,0.010850694444444444,34.928385416666664,0)" xlink:href="#aw"/><use transform="matrix(0.010850694444444444,0,0,0.010850694444444444,46.65798611111111,0)" xlink:href="#aM"/><use transform="matrix(0.010850694444444444,0,0,0.010850694444444444,54.66579861111111,0)" xlink:href="#ag"/><use transform="matrix(0.010850694444444444,0,0,0.010850694444444444,67.36111111111111,0)" xlink:href="#an"/><use transform="matrix(0.010850694444444444,0,0,0.010850694444444444,80.68576388888889,0)" xlink:href="#ai"/><use transform="matrix(0.010850694444444444,0,0,0.010850694444444444,93.81510416666666,0)" xlink:href="#aw"/></g><path d="M180 0v-1490h901v168H370v510h643v168H370V0H180" id="aN"/><g id="D"><use transform="matrix(0.010850694444444444,0,0,0.010850694444444444,0,0)" xlink:href="#aN"/><use transform="matrix(0.010850694444444444,0,0,0.010850694444444444,12.239583333333332,0)" xlink:href="#an"/><use transform="matrix(0.010850694444444444,0,0,0.010850694444444444,25.564236111111104,0)" xlink:href="#ay"/><use transform="matrix(0.010850694444444444,0,0,0.010850694444444444,30.94618055555555,0)" xlink:href="#ay"/><use transform="matrix(0.010850694444444444,0,0,0.010850694444444444,36.32812499999999,0)" xlink:href="#an"/><use transform="matrix(0.010850694444444444,0,0,0.010850694444444444,49.25130208333333,0)" xlink:href="#ap"/></g><g id="E"><use transform="matrix(0.010850694444444444,0,0,0.010850694444444444,0,0)" xlink:href="#ae"/><use transform="matrix(0.010850694444444444,0,0,0.010850694444444444,13.140190972222221,0)" xlink:href="#am"/></g><g id="F"><use transform="matrix(0.010850694444444444,0,0,0.010850694444444444,0,0)" xlink:href="#an"/><use transform="matrix(0.010850694444444444,0,0,0.010850694444444444,13.324652777777777,0)" xlink:href="#ai"/></g><g id="G"><use transform="matrix(0.010850694444444444,0,0,0.010850694444444444,0,0)" xlink:href="#aa"/><use transform="matrix(0.010850694444444444,0,0,0.010850694444444444,12.47829861111111,0)" xlink:href="#ai"/><use transform="matrix(0.010850694444444444,0,0,0.010850694444444444,25.282118055555554,0)" xlink:href="#al"/></g><g id="H"><use transform="matrix(0.010850694444444444,0,0,0.010850694444444444,0,0)" xlink:href="#aj"/><use transform="matrix(0.010850694444444444,0,0,0.010850694444444444,13.606770833333332,0)" xlink:href="#aa"/><use transform="matrix(0.010850694444444444,0,0,0.010850694444444444,26.085069444444443,0)" xlink:href="#ak"/><use transform="matrix(0.010850694444444444,0,0,0.010850694444444444,33.463541666666664,0)" xlink:href="#aa"/></g><g id="I"><use transform="matrix(0.010850694444444444,0,0,0.010850694444444444,0,0)" xlink:href="#ag"/><use transform="matrix(0.010850694444444444,0,0,0.010850694444444444,12.6953125,0)" xlink:href="#an"/><use transform="matrix(0.010850694444444444,0,0,0.010850694444444444,26.01996527777778,0)" xlink:href="#ay"/><use transform="matrix(0.010850694444444444,0,0,0.010850694444444444,31.40190972222222,0)" xlink:href="#ay"/><use transform="matrix(0.010850694444444444,0,0,0.010850694444444444,36.783854166666664,0)" xlink:href="#ac"/><use transform="matrix(0.010850694444444444,0,0,0.010850694444444444,49.73958333333333,0)" xlink:href="#ag"/><use transform="matrix(0.010850694444444444,0,0,0.010850694444444444,62.43489583333333,0)" xlink:href="#ak"/><use transform="matrix(0.010850694444444444,0,0,0.010850694444444444,69.7048611111111,0)" xlink:href="#af"/><use transform="matrix(0.010850694444444444,0,0,0.010850694444444444,75.08680555555554,0)" xlink:href="#an"/><use transform="matrix(0.010850694444444444,0,0,0.010850694444444444,88.41145833333331,0)" xlink:href="#ai"/></g><use transform="matrix(0.010850694444444444,0,0,0.010850694444444444,0,0)" xlink:href="#aM" id="J"/><g id="K"><use transform="matrix(0.010850694444444444,0,0,0.010850694444444444,0,0)" xlink:href="#aa"/><use transform="matrix(0.010850694444444444,0,0,0.010850694444444444,12.47829861111111,0)" xlink:href="#ai"/><use transform="matrix(0.010850694444444444,0,0,0.010850694444444444,25.60763888888889,0)" xlink:href="#aa"/><use transform="matrix(0.010850694444444444,0,0,0.010850694444444444,38.0859375,0)" xlink:href="#ay"/><use transform="matrix(0.010850694444444444,0,0,0.010850694444444444,43.576388888888886,0)" xlink:href="#al"/><use transform="matrix(0.010850694444444444,0,0,0.010850694444444444,56.06553819444444,0)" xlink:href="#aw"/><use transform="matrix(0.010850694444444444,0,0,0.010850694444444444,67.79513888888889,0)" xlink:href="#af"/><use transform="matrix(0.010850694444444444,0,0,0.010850694444444444,73.17708333333333,0)" xlink:href="#aw"/></g><g id="L"><use transform="matrix(0.010850694444444444,0,0,0.010850694444444444,0,0)" xlink:href="#aL"/><use transform="matrix(0.010850694444444444,0,0,0.010850694444444444,16.23263888888889,0)" xlink:href="#aa"/><use transform="matrix(0.010850694444444444,0,0,0.010850694444444444,28.7109375,0)" xlink:href="#aw"/><use transform="matrix(0.010850694444444444,0,0,0.010850694444444444,40.44053819444444,0)" xlink:href="#ag"/><use transform="matrix(0.010850694444444444,0,0,0.010850694444444444,53.35286458333333,0)" xlink:href="#aa"/><use transform="matrix(0.010850694444444444,0,0,0.010850694444444444,65.83116319444444,0)" xlink:href="#aj"/><use transform="matrix(0.010850694444444444,0,0,0.010850694444444444,79.43793402777777,0)" xlink:href="#ac"/></g><g id="M"><use transform="matrix(0.010850694444444444,0,0,0.010850694444444444,0,0)" xlink:href="#aj"/><use transform="matrix(0.010850694444444444,0,0,0.010850694444444444,13.606770833333332,0)" xlink:href="#ac"/><use transform="matrix(0.010850694444444444,0,0,0.010850694444444444,26.5625,0)" xlink:href="#ag"/><use transform="matrix(0.010850694444444444,0,0,0.010850694444444444,39.2578125,0)" xlink:href="#af"/><use transform="matrix(0.010850694444444444,0,0,0.010850694444444444,44.63975694444444,0)" xlink:href="#aw"/><use transform="matrix(0.010850694444444444,0,0,0.010850694444444444,56.369357638888886,0)" xlink:href="#af"/><use transform="matrix(0.010850694444444444,0,0,0.010850694444444444,61.75130208333333,0)" xlink:href="#an"/><use transform="matrix(0.010850694444444444,0,0,0.010850694444444444,75.0759548611111,0)" xlink:href="#ai"/></g><g id="N"><use transform="matrix(0.010850694444444444,0,0,0.010850694444444444,0,0)" xlink:href="#aJ"/><use transform="matrix(0.010850694444444444,0,0,0.010850694444444444,8.22482638888889,0)" xlink:href="#ab"/><use transform="matrix(0.010850694444444444,0,0,0.010850694444444444,16.221788194444443,0)" xlink:href="#an"/><use transform="matrix(0.010850694444444444,0,0,0.010850694444444444,29.54644097222222,0)" xlink:href="#ai"/><use transform="matrix(0.010850694444444444,0,0,0.010850694444444444,42.67578125,0)" xlink:href="#ak"/></g><g id="O"><use transform="matrix(0.010850694444444444,0,0,0.010850694444444444,0,0)" xlink:href="#ay"/><use transform="matrix(0.010850694444444444,0,0,0.010850694444444444,5.381944444444445,0)" xlink:href="#af"/><use transform="matrix(0.010850694444444444,0,0,0.010850694444444444,10.76388888888889,0)" xlink:href="#ai"/><use transform="matrix(0.010850694444444444,0,0,0.010850694444444444,23.893229166666664,0)" xlink:href="#ac"/></g><path fill="#0c7cba" d="M645 0H180v-1490h484c435 0 692 280 692 742 0 466-257 748-711 748zM370-168h263c363 0 539-218 539-580 0-358-176-574-521-574H370v1154" id="aO"/><path fill="#0c7cba" d="M471 26C259 26 90-98 90-318c0-256 228-303 435-329 202-27 287-16 287-108 0-139-79-219-234-219-161 0-248 86-283 164l-173-57c86-203 278-265 451-265 150 0 419 46 419 395V0H815v-152h-12C765-73 660 26 471 26zm31-159c199 0 310-134 310-271v-155c-30 35-226 55-295 64-131 17-246 59-246 186 0 116 97 176 231 176" id="aP"/><path fill="#0c7cba" d="M140 405l46-156c120 36 205 19 263-150l32-93L54-1118h197c107 313 237 620 324 950 87-331 219-637 326-950h196L606 167c-68 178-176 259-334 259-64 0-113-12-132-21" id="aQ"/><g id="P"><use transform="matrix(0.01953125,0,0,0.01953125,0,0)" xlink:href="#aO"/><use transform="matrix(0.01953125,0,0,0.01953125,28.8671875,0)" xlink:href="#aP"/><use transform="matrix(0.01953125,0,0,0.01953125,50.7421875,0)" xlink:href="#aQ"/></g><path fill="#0c7cba" d="M653-1490V0H466v-1314h-10L96-1047v-204l324-239h233" id="aR"/><use transform="matrix(0.01953125,0,0,0.01953125,0,0)" xlink:href="#aR" id="Q"/><path fill="#0c7cba" d="M154 0v-137l495-537c165-179 249-281 249-418 0-156-121-253-280-253-170 0-278 110-278 278H158c0-264 200-443 465-443 266 0 455 183 455 416 0 161-73 288-336 568L416-179v12h687V0H154" id="aS"/><use transform="matrix(0.01953125,0,0,0.01953125,0,0)" xlink:href="#aS" id="R"/><path fill="#0c7cba" d="M635 20c-292 0-500-160-510-396h192c11 142 145 229 315 229 187 0 323-105 323-260 0-161-125-274-346-274H488v-165h121c174 0 294-100 294-254 0-148-104-245-266-245-152 0-291 85-297 230H157c8-234 222-395 484-395 278 0 448 188 448 400 0 168-95 291-247 336v12c190 31 301 169 301 357 0 244-216 425-508 425" id="aT"/><use transform="matrix(0.01953125,0,0,0.01953125,0,0)" xlink:href="#aT" id="S"/><path fill="#0c7cba" d="M120-303v-155l652-1032h231v1020h202v167h-202V0H821v-303H120zm702-167v-782h-12L323-482v12h499" id="aU"/><use transform="matrix(0.01953125,0,0,0.01953125,0,0)" xlink:href="#aU" id="T"/><path fill="#0c7cba" d="M626 20c-262 0-458-168-468-396h184c12 133 134 229 284 229 180 0 311-137 311-326 0-192-136-335-323-335-92 0-196 33-255 78l-178-22 88-738h784v167H429l-51 435h8c61-51 160-87 263-87 273 0 474 211 474 499 0 286-210 496-497 496" id="aV"/><use transform="matrix(0.01953125,0,0,0.01953125,0,0)" xlink:href="#aV" id="U"/><path d="M124 0v-220l528-495c135-132 210-216 210-336 0-133-98-215-231-215-139 0-229 88-229 233H110c0-290 214-477 523-477 315 0 525 182 525 440 0 167-80 305-385 586L548-262v11h630V0H124" id="aW"/><use transform="matrix(0.010850694444444444,0,0,0.010850694444444444,0,0)" xlink:href="#aW" id="V"/><use transform="matrix(0.010850694444444444,0,0,0.010850694444444444,0,0)" xlink:href="#aW" id="W"/><g id="X"><use transform="matrix(0.010850694444444444,0,0,0.010850694444444444,0,0)" xlink:href="#ak"/><use transform="matrix(0.010850694444444444,0,0,0.010850694444444444,7.052951388888888,0)" xlink:href="#an"/></g></defs></g></svg>